<svg width="164" height="32" viewBox="0 0 164 32" fill="none" xmlns="http://www.w3.org/2000/svg">
<g clip-path="url(#clip0_3908_92952)">
<path d="M78.2706 4.52246C74.4749 4.52246 71.3984 6.91798 71.3984 12.5171C71.3984 18.1181 74.4752 20.5117 78.2706 20.5117C82.0661 20.5117 85.1432 18.3488 85.1432 12.5171C85.1432 6.76273 82.0661 4.52246 78.2706 4.52246ZM78.2706 17.153C76.9492 17.153 75.8757 15.7634 75.8757 12.5171C75.8757 9.27073 76.9492 7.88109 78.2706 7.88109C79.5927 7.88109 80.6634 9.18088 80.6634 12.5171C80.6634 15.8981 79.5919 17.153 78.2706 17.153Z" fill="#00296C"/>
<path d="M68.1943 8.09317C69.0991 8.09317 69.887 8.16052 70.5164 8.40949V4.75698C69.8286 4.56111 69.0926 4.45703 68.3214 4.45703C65.7952 4.45703 63.5336 5.47328 62.0244 7.19741C61.8078 9.06237 61.6973 10.9601 61.6973 12.8822C61.6973 14.5208 61.7787 16.1389 61.9349 17.7365C63.444 19.5198 65.7453 20.5769 68.3217 20.5769C69.0929 20.5769 69.8288 20.4728 70.5166 20.2769V16.4836C69.8204 16.7203 68.9638 16.9427 68.1946 16.9427C66.1664 16.9427 64.5218 15.1348 64.5218 12.5169C64.5216 9.89913 66.1664 8.09317 68.1943 8.09317Z" fill="#00296C"/>
<path d="M153.329 8.09317C154.231 8.09317 155.022 8.16052 155.649 8.40949V4.75698C154.961 4.56111 154.227 4.45703 153.456 4.45703C148.908 4.45703 145.223 7.7483 145.223 12.5169C145.223 17.2876 148.908 20.5767 153.456 20.5767C154.227 20.5767 154.961 20.4726 155.649 20.2767V16.4834C154.955 16.72 154.095 16.9425 153.329 16.9425C151.301 16.9425 149.656 15.1346 149.656 12.5166C149.656 9.89913 151.301 8.09317 153.329 8.09317Z" fill="#00296C"/>
<path d="M101.672 4.88232H96.4107L94.5812 13.4362L92.751 4.88232H87.4899L85.4766 20.109H89.4567L90.5553 9.67414L93.3003 20.109H94.5812H95.8621L98.6071 9.67414L99.7049 20.109H103.685L101.672 4.88232Z" fill="#00296C"/>
<path d="M120.678 4.88232H115.417L113.586 13.4362L111.757 4.88232H106.496L104.482 20.109H108.463L109.56 9.67414L112.305 20.109H113.586H114.867L117.612 9.67414L118.711 20.109H122.691L120.678 4.88232Z" fill="#00296C"/>
<path d="M132.599 8.1066V4.88232H128.299H126.24H124.09V20.109H126.24H128.299H132.599V16.8845H128.299V14.108H132.004V10.8833H128.299V8.1066H132.599Z" fill="#00296C"/>
<path d="M161.142 14.1074V16.8845H163.675C163.587 17.97 163.462 19.0453 163.304 20.1084H156.932V4.88232H163.183C163.36 5.94544 163.499 7.02085 163.604 8.10621H161.142V10.8833H163.796C163.823 11.5465 163.835 12.2137 163.835 12.883C163.835 13.2931 163.831 13.7012 163.821 14.1072L161.142 14.1074Z" fill="#00296C"/>
<path d="M142.535 13.238C143.942 12.6197 145.087 11.4934 145.087 9.406C145.087 5.91263 141.472 4.88232 138.911 4.88232H133.787V20.1084H137.995V13.1218L141.472 20.1084H145.91L142.535 13.238ZM137.995 11.3525C137.95 11.3525 137.904 11.3525 137.858 11.3506V7.81857C137.904 7.81661 137.95 7.81662 137.995 7.81662C139.546 7.81662 140.803 8.2859 140.803 9.58569C140.803 10.9731 139.546 11.3525 137.995 11.3525Z" fill="#00296C"/>
<path d="M47.6605 0.314941H5.21471C2.52547 0.314941 0.345703 2.50496 0.345703 5.20645V21.2623C0.345703 23.9639 2.52581 26.1537 5.21471 26.1537H25.415L34.3675 31.3793L32.5797 26.1537H47.6605C50.3497 26.1537 52.5294 23.9637 52.5294 21.2623V5.20645C52.5296 2.50479 50.3495 0.314941 47.6605 0.314941Z" fill="#00296C"/>
<path d="M7.7887 22.6122C7.78131 22.6122 7.77425 22.6123 7.76702 22.6121C7.17735 22.6052 6.62844 22.3167 6.29679 21.8393C5.77299 21.0853 5.00511 19.3468 3.70637 12.54C3.01022 8.89159 2.48693 5.45572 2.48178 5.42153C2.33522 4.45665 3.01555 3.55845 4.00121 3.41498C4.98618 3.27135 5.90442 3.93733 6.05097 4.90238C6.05596 4.93589 6.56755 8.29309 7.24822 11.8645C7.64145 13.9275 7.97775 15.4664 8.25714 16.6115C9.95835 13.5424 12.0349 9.41513 12.949 7.55117C13.2838 6.86885 14.0252 6.47111 14.7935 6.56255C15.5613 6.65399 16.1839 7.21422 16.3418 7.95529C16.6405 9.35431 17.4146 12.2675 18.5144 14.9115C18.92 11.1522 19.7049 6.38136 21.2012 3.37844C21.6381 2.5018 22.7183 2.13774 23.6138 2.56545C24.5093 2.99317 24.8813 4.05049 24.4443 4.92714C22.065 9.70204 21.7087 20.5791 21.7053 20.6885C21.684 21.3931 21.2367 22.0176 20.5675 22.2775C19.8983 22.5375 19.1354 22.3832 18.6262 21.8848C17.0097 20.3025 15.5362 17.5755 14.2463 13.7798C14.1906 13.6156 14.1363 13.4531 14.0835 13.2926C12.502 16.3738 10.423 20.2779 9.25582 21.8745C8.91661 22.3376 8.3701 22.6122 7.7887 22.6122Z" fill="white"/>
<path d="M35.795 7.70813C35.0437 6.21433 33.7532 5.18142 32.0673 4.72223C30.1441 4.1997 28.0608 4.89465 26.4936 6.58379C24.6331 8.5843 23.2761 12.3338 25.0448 16.8523C26.2563 19.949 28.1616 20.5173 29.3927 20.5173C29.5257 20.5173 29.6497 20.5103 29.7648 20.4998C33.0414 20.1953 35.7933 15.9513 36.3235 13.0413C36.7045 10.9562 36.5267 9.16154 35.795 7.70813ZM32.7718 12.42C32.6047 13.3297 32.0241 14.5332 31.289 15.4851C30.5341 16.4651 29.7935 16.9491 29.425 16.9825C29.2004 17.0035 28.7834 16.532 28.415 15.5889C27.6744 13.6991 27.4264 10.8276 29.1627 8.95896C29.6803 8.4012 30.2826 8.0862 30.8002 8.0862C30.9044 8.0862 31.0051 8.09846 31.1003 8.12492C33.0325 8.6511 33.0754 10.7503 32.7718 12.42Z" fill="white"/>
<path d="M49.198 7.70813C48.8207 6.96216 48.3101 6.32867 47.6847 5.82721C47.0556 5.32574 46.3114 4.95275 45.4684 4.72223C43.547 4.1997 41.4638 4.89465 39.8946 6.58379C38.0361 8.5843 36.6791 12.3338 38.4459 16.8523C39.6574 19.949 41.5627 20.5173 42.7938 20.5173C42.9268 20.5173 43.0527 20.5103 43.1676 20.4998C46.4425 20.1953 49.1942 15.9513 49.7246 13.0413C50.1058 10.9562 49.9277 9.16154 49.198 7.70813ZM46.1729 12.42C46.0077 13.3297 45.4251 14.5332 44.6919 15.4851C43.9352 16.4651 43.1946 16.9491 42.8262 16.9825C42.6032 17.0035 42.1846 16.532 41.8161 15.5889C41.0773 13.6991 40.8294 10.8276 42.5639 8.95896C43.0833 8.4012 43.6854 8.0862 44.2013 8.0862C44.3055 8.0862 44.4061 8.09846 44.5032 8.12492C46.4355 8.6511 46.4767 10.7503 46.1729 12.42Z" fill="white"/>
</g>
<defs>
<clipPath id="clip0_3908_92952">
<rect width="163.705" height="31.81" fill="white" transform="translate(0.147461 0.0952148)"/>
</clipPath>
</defs>
</svg>
