<svg width="154" height="26" viewBox="0 0 154 26" fill="none" xmlns="http://www.w3.org/2000/svg">
<g clip-path="url(#clip0_3908_92966)">
<path d="M12.0316 1.4481C18.3382 1.4481 23.4752 6.58405 23.4752 12.9404C23.4752 19.2968 18.3382 24.4328 12.0316 24.4328C5.72482 24.4328 0.587891 19.3477 0.587891 12.9404C0.587891 6.5332 5.72482 1.4481 12.0316 1.4481ZM101.75 1.19385V21.3308C101.75 22.8564 102.36 23.2632 103.53 23.5682L103.581 23.8226H97.1214V21.3308C96.3587 23.1614 94.7822 24.2802 92.7471 24.2802C89.2891 24.2802 87.0004 21.1274 87.0004 16.4491C87.0004 13.8049 87.763 11.5675 89.1875 9.88938C90.5608 8.26213 92.4422 7.39767 94.5277 7.39767C95.5449 7.39767 96.4092 7.60107 97.1214 8.05872V5.31278C97.1214 4.70257 96.9686 4.29576 96.6636 3.99065C96.2571 3.6347 95.5953 3.48214 94.5781 3.58384H94.5277V3.32958L101.75 1.19385ZM126.265 7.44851V21.3308C126.265 22.8564 126.875 23.2632 128.045 23.5682V23.8226H121.586V21.28C120.822 23.1106 119.144 24.2802 117.263 24.2802C115.024 24.2802 113.601 23.2632 113.041 21.28L112.94 20.7714C112.837 20.2629 112.787 19.7544 112.787 19.2459V11.8217C112.787 10.1944 112.431 9.68595 111.006 9.58424H110.956V9.32999L117.415 7.44851V19.1442C117.415 20.8731 118.178 21.8393 119.602 21.8393C120.467 21.8393 121.178 21.3816 121.586 20.6189V11.8217C121.586 10.1436 121.281 9.63513 120.111 9.53342H120.06V9.27917L126.265 7.44851ZM79.6251 7.39767C81.3545 7.39767 83.0334 8.00787 84.1522 9.07574C85.4238 10.2962 86.0849 12.076 86.1353 14.4151V14.4659H76.4212C76.2177 17.8221 78.3031 20.5681 81.0496 20.6698C83.0334 20.8223 84.762 19.6019 85.7288 17.6187L85.9832 17.7204C85.4238 21.4325 83.2367 24.2293 79.4218 24.2293C75.0988 24.2293 72.6575 20.6189 72.5558 16.0932V14.9236C72.7592 12.9404 73.3696 11.1606 74.4376 9.83849C75.0988 9.02493 75.8617 8.41469 76.7772 8.00787C77.5401 7.60107 78.6592 7.39767 79.5747 7.39767H79.6251ZM146.914 7.44851C149.661 7.44851 151.339 9.17746 151.339 12.1268V21.5851C151.339 22.7038 151.848 23.2632 153.119 23.5682H153.17V23.8226H146.66V12.2793C146.66 10.4487 145.999 9.53342 144.625 9.53342C143.507 9.53342 142.947 10.347 142.642 11.0589C142.693 11.4149 142.743 11.7708 142.743 12.1268V21.7376C142.743 22.9072 143.099 23.314 144.116 23.5682H144.168V23.8226H138.115V12.2793C138.115 10.4487 137.403 9.53342 136.081 9.53342C135.013 9.53342 134.453 10.2962 134.199 10.9064V21.7885C134.199 22.958 134.555 23.3649 135.572 23.6191H135.623V23.8734H129.571V11.7708C129.571 10.1436 129.163 9.63513 127.79 9.53342H127.74V9.27917L134.199 7.49936V10.1944C134.86 8.46554 136.386 7.44851 138.318 7.44851C140.506 7.44851 142.032 8.51638 142.54 10.4487C143.201 8.61808 144.88 7.44851 146.914 7.44851ZM54.1442 2.21087L60.1966 16.3983L66.2491 2.21087H72.7592L72.7084 2.46512L72.6344 2.48157C71.5129 2.73715 70.9283 3.15648 70.9283 4.55001V21.8393C71.03 22.958 71.6403 23.314 72.7084 23.5682H72.7592V23.8226H64.4689V23.5682H64.5198C65.5878 23.314 66.1982 22.958 66.2999 21.8393V5.00767L58.3148 23.7717H57.8571L50.0753 5.51618V21.4325C50.0753 22.8564 50.6857 23.2632 51.8554 23.5174H51.9063V23.7717H47.1255V23.5174H47.1763C48.3461 23.2632 48.9564 22.8564 48.9564 21.4325V4.55001C48.9564 3.12619 48.3461 2.71938 47.1763 2.46512H47.1255V2.21087H54.1442ZM109.634 7.44851V21.3308L109.634 21.4247C109.659 22.8733 110.268 23.2695 111.413 23.5682L111.464 23.8226H105.005V11.8217C105.005 10.1944 104.649 9.68595 103.225 9.58424H103.174V9.32999L109.634 7.44851ZM30.3414 2.10917C33.4439 2.10917 36.0378 6.99085 36.0378 12.9404C36.0378 18.9408 33.4948 23.7717 30.3414 23.7717C27.188 23.7717 24.645 18.9408 24.645 12.9404C24.645 6.94 27.188 2.10917 30.3414 2.10917ZM39.0895 3.22789C40.2592 3.22789 41.1238 7.60107 41.1238 12.9404C41.1238 18.2798 40.2084 22.653 39.0895 22.653C37.9817 22.653 37.0733 18.3668 37.0553 13.1003L37.055 12.9404C37.055 7.60107 37.9705 3.22789 39.0895 3.22789ZM95.2904 8.31298C93.2561 8.31298 91.9845 11.0081 91.9845 15.1778C91.9845 17.1611 92.3406 18.89 92.9512 20.0596C93.5106 21.1783 94.3244 21.7885 95.24 21.7885C96.1555 21.7885 96.8165 21.3816 97.1214 20.6189V9.43171C96.7653 8.71979 96.1042 8.31298 95.2904 8.31298ZM79.5747 8.36383C77.7436 8.36383 76.6755 10.5504 76.5229 13.6015V13.6524H82.0667C82.1684 11.2623 81.7618 9.68595 80.9984 8.92321C80.5918 8.56723 80.1341 8.36383 79.5747 8.36383ZM107.141 1.3464C108.616 1.3464 109.735 2.46512 109.735 3.9398C109.735 5.41447 108.616 6.5332 107.141 6.5332C105.666 6.5332 104.547 5.41447 104.547 3.9398C104.547 2.46512 105.666 1.3464 107.141 1.3464Z" fill="#00296C"/>
</g>
<defs>
<clipPath id="clip0_3908_92966">
<rect width="153.619" height="24.0515" fill="white" transform="translate(0.19043 0.974121)"/>
</clipPath>
</defs>
</svg>
