<svg width="276" height="160" viewBox="0 0 276 160" fill="none" xmlns="http://www.w3.org/2000/svg">
<rect width="276" height="160" rx="3" fill="white"/>
<g clip-path="url(#clip0_3908_92936)">
<path d="M102.616 78.4788C105.306 78.4788 107.495 76.3468 107.495 73.7262V62.0595C107.495 59.439 105.306 57.3071 102.616 57.3071C99.926 57.3071 97.7373 59.439 97.7373 62.0595V73.7264C97.7374 76.3468 99.9261 78.4788 102.616 78.4788Z" fill="#2196F3"/>
<path d="M111.817 78.4785H115.316C118.007 78.4785 120.195 76.3465 120.195 73.726C120.195 71.1055 118.007 68.9736 115.316 68.9736C112.626 68.9736 110.438 71.1055 110.438 73.726V77.1351C110.438 77.877 111.055 78.4785 111.817 78.4785Z" fill="#2196F3"/>
<path d="M77.996 79.1835H89.9733C92.6635 79.1835 94.8521 77.0515 94.8521 74.431C94.8521 71.8106 92.6635 69.6787 89.9733 69.6787H77.996C75.3058 69.6788 73.1172 71.8107 73.1172 74.431C73.1172 77.0515 75.3058 79.1835 77.996 79.1835Z" fill="#2196F3"/>
<path d="M89.9736 66.8118H93.4732C94.2349 66.8118 94.8524 66.2103 94.8524 65.4684V62.0595C94.8524 59.439 92.6638 57.3071 89.9736 57.3071C87.2834 57.3071 85.0947 59.439 85.0947 62.0595C85.0947 64.6799 87.2834 66.8118 89.9736 66.8118Z" fill="#2196F3"/>
<path d="M90.6962 81.9922C88.006 81.9922 85.8174 84.1242 85.8174 86.7447V98.4113C85.8174 101.032 88.006 103.164 90.6962 103.164C93.3866 103.164 95.5753 101.032 95.5753 98.4113V86.7447C95.5753 84.1242 93.3865 81.9922 90.6962 81.9922Z" fill="#2196F3"/>
<path d="M81.4957 81.9922H77.996C75.3058 81.9922 73.1172 84.1242 73.1172 86.7447C73.1172 89.3652 75.3058 91.4971 77.996 91.4971C80.6863 91.4971 82.875 89.3652 82.875 86.7447V83.3357C82.875 82.5937 82.2574 81.9922 81.4957 81.9922Z" fill="#2196F3"/>
<path d="M115.315 81.2891H103.338C100.648 81.2891 98.459 83.421 98.459 86.0416C98.459 88.662 100.648 90.7939 103.338 90.7939H115.315C118.005 90.7939 120.194 88.662 120.194 86.0416C120.194 83.421 118.005 81.2891 115.315 81.2891Z" fill="#2196F3"/>
<path d="M103.338 93.6587H99.8382C99.0765 93.6587 98.459 94.2602 98.459 95.0022V98.4111C98.459 101.032 100.648 103.164 103.338 103.164C106.028 103.164 108.217 101.032 108.217 98.4111C108.217 95.7907 106.028 93.6587 103.338 93.6587Z" fill="#2196F3"/>
<path d="M140.453 87.3112C140.354 87.4685 140.251 87.5815 140.143 87.6503C140.035 87.7093 139.897 87.7387 139.73 87.7387C139.553 87.7387 139.362 87.6896 139.155 87.5913C138.959 87.493 138.728 87.3849 138.462 87.267C138.197 87.1392 137.893 87.0263 137.549 86.928C137.214 86.8297 136.816 86.7806 136.354 86.7806C135.637 86.7806 135.072 86.9329 134.659 87.2375C134.256 87.5422 134.055 87.9402 134.055 88.4316C134.055 88.7559 134.158 89.0311 134.364 89.2571C134.581 89.4733 134.861 89.6649 135.205 89.832C135.558 89.999 135.956 90.1514 136.399 90.289C136.841 90.4167 137.288 90.5592 137.74 90.7165C138.202 90.8737 138.654 91.0555 139.096 91.2619C139.539 91.4584 139.932 91.714 140.276 92.0284C140.629 92.3331 140.91 92.7016 141.116 93.134C141.332 93.5664 141.44 94.0873 141.44 94.6966C141.44 95.4238 141.308 96.097 141.042 96.7161C140.787 97.3254 140.403 97.8561 139.892 98.3082C139.381 98.7504 138.748 99.0993 137.991 99.3548C137.244 99.6005 136.379 99.7233 135.396 99.7233C134.875 99.7233 134.364 99.6742 133.863 99.5759C133.372 99.4875 132.895 99.3597 132.433 99.1927C131.981 99.0256 131.559 98.829 131.166 98.603C130.782 98.377 130.443 98.1313 130.148 97.866L130.989 96.4803C131.097 96.3132 131.225 96.1855 131.372 96.097C131.519 96.0086 131.706 95.9643 131.932 95.9643C132.158 95.9643 132.369 96.0282 132.566 96.156C132.772 96.2838 133.008 96.4213 133.274 96.5687C133.539 96.7161 133.848 96.8537 134.202 96.9815C134.566 97.1093 135.023 97.1731 135.573 97.1731C136.006 97.1731 136.374 97.124 136.679 97.0257C136.993 96.9176 137.249 96.78 137.445 96.613C137.652 96.4459 137.799 96.2543 137.888 96.038C137.986 95.812 138.035 95.5811 138.035 95.3452C138.035 94.9914 137.927 94.7015 137.711 94.4755C137.504 94.2495 137.224 94.0529 136.87 93.8858C136.527 93.7188 136.128 93.5714 135.676 93.4436C135.234 93.306 134.777 93.1586 134.305 93.0013C133.844 92.8441 133.387 92.6623 132.935 92.4559C132.492 92.2397 132.094 91.9695 131.74 91.6452C131.397 91.3209 131.116 90.9228 130.9 90.4511C130.694 89.9794 130.591 89.4094 130.591 88.7411C130.591 88.122 130.714 87.5324 130.959 86.9722C131.205 86.412 131.564 85.9256 132.035 85.5128C132.517 85.0902 133.111 84.7561 133.819 84.5104C134.536 84.2549 135.362 84.1271 136.296 84.1271C137.337 84.1271 138.286 84.2991 139.141 84.6431C139.996 84.987 140.708 85.4391 141.278 85.9993L140.453 87.3112ZM147.866 77.582V99.4875H144.225V77.582H147.866ZM159.484 93.0308C158.432 93.0799 157.547 93.1734 156.83 93.3109C156.113 93.4387 155.538 93.6057 155.106 93.8121C154.673 94.0185 154.363 94.2592 154.177 94.5344C153.99 94.8096 153.897 95.1093 153.897 95.4337C153.897 96.0724 154.083 96.5294 154.457 96.8046C154.84 97.0798 155.336 97.2173 155.946 97.2173C156.692 97.2173 157.336 97.0847 157.877 96.8193C158.427 96.5441 158.962 96.1314 159.484 95.5811V93.0308ZM151.14 86.471C152.88 84.8789 154.973 84.0829 157.42 84.0829C158.304 84.0829 159.095 84.2303 159.793 84.5251C160.491 84.8101 161.08 85.2131 161.562 85.7339C162.043 86.245 162.407 86.8591 162.653 87.5766C162.908 88.294 163.036 89.0802 163.036 89.9352V99.4875H161.385C161.041 99.4875 160.775 99.4384 160.589 99.3401C160.402 99.232 160.255 99.0207 160.147 98.7062L159.823 97.6154C159.439 97.9593 159.066 98.264 158.702 98.5293C158.339 98.7848 157.96 99.001 157.567 99.1779C157.174 99.3548 156.751 99.4875 156.3 99.5759C155.857 99.6742 155.365 99.7233 154.825 99.7233C154.186 99.7233 153.597 99.6398 153.057 99.4727C152.516 99.2959 152.049 99.0354 151.656 98.6915C151.263 98.3475 150.958 97.92 150.742 97.409C150.526 96.8979 150.418 96.3034 150.418 95.6253C150.418 95.242 150.481 94.8636 150.609 94.4902C150.737 94.1069 150.943 93.7433 151.229 93.3994C151.523 93.0554 151.901 92.7311 152.364 92.4264C152.825 92.1218 153.39 91.8564 154.059 91.6304C154.737 91.4044 155.523 91.2226 156.418 91.085C157.311 90.9376 158.334 90.8491 159.484 90.8197V89.9352C159.484 88.9229 159.267 88.1761 158.835 87.6945C158.402 87.2032 157.778 86.9574 156.963 86.9574C156.373 86.9574 155.881 87.0263 155.489 87.1638C155.106 87.3014 154.767 87.4587 154.472 87.6355C154.177 87.8026 153.906 87.955 153.661 88.0925C153.425 88.2301 153.16 88.2989 152.865 88.2989C152.609 88.2989 152.393 88.235 152.216 88.1073C152.039 87.9697 151.897 87.8124 151.789 87.6355L151.14 86.471ZM177.3 87.5618C177.192 87.6994 177.084 87.8076 176.976 87.8861C176.878 87.9647 176.73 88.0041 176.534 88.0041C176.347 88.0041 176.165 87.95 175.988 87.8419C175.812 87.724 175.6 87.5962 175.355 87.4587C175.109 87.3112 174.814 87.1835 174.47 87.0754C174.136 86.9574 173.718 86.8985 173.217 86.8985C172.578 86.8985 172.018 87.0164 171.537 87.2523C171.055 87.4783 170.652 87.8076 170.328 88.2399C170.013 88.6723 169.777 89.1981 169.62 89.8172C169.463 90.4265 169.384 91.1194 169.384 91.8958C169.384 92.7016 169.467 93.419 169.635 94.048C169.812 94.677 170.062 95.2076 170.387 95.64C170.711 96.0626 171.104 96.3869 171.566 96.613C172.028 96.8292 172.548 96.9373 173.129 96.9373C173.708 96.9373 174.175 96.8684 174.529 96.7309C174.892 96.5835 175.197 96.4262 175.443 96.2592C175.688 96.0823 175.9 95.925 176.077 95.7874C176.263 95.64 176.469 95.5663 176.696 95.5663C176.991 95.5663 177.212 95.6794 177.359 95.9054L178.406 97.2321C178.003 97.7038 177.566 98.1018 177.094 98.4261C176.622 98.7406 176.13 98.9961 175.62 99.1927C175.119 99.3794 174.597 99.5121 174.057 99.5907C173.527 99.6693 172.996 99.7086 172.465 99.7086C171.531 99.7086 170.652 99.5366 169.827 99.1927C169.001 98.8389 168.279 98.3278 167.66 97.6596C167.041 96.9913 166.549 96.1756 166.186 95.2125C165.832 94.2396 165.655 93.134 165.655 91.8958C165.655 90.7853 165.812 89.7583 166.127 88.8148C166.451 87.8616 166.923 87.041 167.542 86.3531C168.161 85.6553 168.927 85.1099 169.841 84.7168C170.755 84.3237 171.807 84.1271 172.996 84.1271C174.126 84.1271 175.113 84.3089 175.959 84.6726C176.814 85.0362 177.58 85.557 178.259 86.2351L177.3 87.5618ZM184.33 77.582V90.1268H185.008C185.253 90.1268 185.445 90.0973 185.583 90.0384C185.73 89.9695 185.877 89.8369 186.025 89.6404L189.784 84.9969C189.941 84.7905 190.113 84.6332 190.3 84.5251C190.496 84.4171 190.747 84.363 191.052 84.363H194.383L189.681 89.9794C189.346 90.4216 188.982 90.7607 188.59 90.9965C188.796 91.144 188.978 91.316 189.135 91.5125C189.302 91.709 189.46 91.9204 189.607 92.1464L194.649 99.4875H191.361C191.076 99.4875 190.831 99.4433 190.624 99.3548C190.418 99.2565 190.246 99.0846 190.108 98.8389L186.246 93.1045C186.108 92.8785 185.966 92.7311 185.819 92.6623C185.671 92.5935 185.45 92.5591 185.155 92.5591H184.33V99.4875H180.689V77.582H184.33Z" fill="#2196F3"/>
</g>
<defs>
<clipPath id="clip0_3908_92936">
<rect width="130.343" height="46.5512" fill="white" transform="translate(72.8281 56.7246)"/>
</clipPath>
</defs>
</svg>
