<svg width="128" height="28" viewBox="0 0 128 28" fill="none" xmlns="http://www.w3.org/2000/svg">
<g clip-path="url(#clip0_3908_92970)">
<path d="M45.2544 3.59244C44.5151 3.64019 44.0794 4.07614 44.087 4.81825C44.0941 5.62413 44.6025 5.99491 45.3566 6.04884C46.1609 5.96907 46.6428 5.5129 46.6033 4.74831C46.5648 3.98597 46.0552 3.54075 45.2544 3.59244Z" fill="#00296C"/>
<path d="M69.3927 14.5884C70.3114 9.88887 66.1776 6.06551 61.7021 7.34108C58.5879 8.22994 56.8427 11.2012 57.2618 14.9063C57.7907 19.578 62.3212 22.089 66.5655 20.0462C68.1281 19.2932 69.0058 18.0197 69.332 16.1338L67.1472 16.1684L66.9506 16.7295C66.104 18.4336 64.4571 19.1017 62.4001 18.5608C60.6446 18.0994 59.5721 16.5933 59.662 14.5881C62.908 14.5884 66.1627 14.5884 69.3927 14.5884ZM62.9127 9.09463C65.1948 8.92952 66.7242 10.1573 67.1023 12.5908C64.5835 12.5908 62.1398 12.5908 59.694 12.5908C59.7306 10.7002 61.092 9.22606 62.9127 9.09463Z" fill="#00296C"/>
<path d="M52.9457 3.62695C52.1306 3.62695 51.4461 3.62695 50.6421 3.62695C50.6421 4.89747 50.6421 6.10928 50.6421 7.41602C49.8354 7.41602 49.1486 7.41602 48.4268 7.41602C48.4268 8.09284 48.4268 8.66799 48.4268 9.34422C49.1713 9.34422 49.857 9.34422 50.6536 9.34422C50.6536 9.81858 50.6525 10.1983 50.6536 10.576C50.6607 13.0729 50.6402 15.5707 50.6888 18.0651C50.7137 19.3699 51.207 20.0591 52.2862 20.2132C53.3418 20.3665 54.4249 20.3343 55.5136 20.3831C55.5136 19.6291 55.5136 19.0514 55.5136 18.3928C55.0726 18.3928 54.6889 18.3658 54.312 18.3982C53.3314 18.483 52.8831 18.0957 52.9342 17.069C52.9896 15.9462 52.946 14.8192 52.946 13.6933C52.946 12.2675 52.946 10.8405 52.946 9.31838C53.8951 9.31838 54.6901 9.31838 55.528 9.31838C55.528 8.66915 55.528 8.11814 55.528 7.39608C54.6625 7.39608 53.8696 7.39608 52.946 7.39608C52.9457 6.09075 52.9457 4.87809 52.9457 3.62695Z" fill="#00296C"/>
<path d="M44.3096 20.2593C45.0416 20.2593 45.6933 20.2593 46.3955 20.2593C46.3955 15.9706 46.3955 11.7443 46.3955 7.46094C45.6829 7.46094 45.0296 7.46094 44.3096 7.46094C44.3096 11.7948 44.3096 16.0231 44.3096 20.2593Z" fill="#00296C"/>
<path d="M11.6702 16.052C10.2209 14.7225 8.79026 13.3677 7.33468 12.0441C6.6243 11.398 6.50801 10.8225 7.29226 10.121C8.28689 9.23072 9.2391 8.28992 10.1703 7.33311C11.4846 5.9834 12.7604 4.59944 13.8556 3.4376C12.9646 2.38952 12.0104 1.26785 10.9958 0.0737305C7.53439 3.43171 4.18982 6.63663 0.900293 9.89742C0.184581 10.6074 0.275309 11.6302 1.03484 12.3635C3.7887 15.0211 6.57907 17.6413 9.41017 20.3281C10.2284 19.5501 11.0006 18.8415 11.7449 18.1044C12.6275 17.2276 12.598 16.9055 11.6702 16.052Z" fill="#00296C"/>
<path d="M19.0904 12.2785C17.5351 10.8212 15.97 9.3715 14.3823 7.89404C13.5324 8.70597 12.7855 9.44901 12.0061 10.1562C11.2903 10.8061 11.3375 11.3576 12.0532 11.9948C13.5776 13.3519 15.0559 14.76 16.5616 16.1383C17.2404 16.7596 17.3023 17.3398 16.5952 18.0068C15.0601 19.4581 13.5467 20.9325 12.0409 22.4128C11.2468 23.1935 10.485 24.0085 9.76562 24.7499C10.7858 25.8174 11.7804 26.8576 12.7948 27.9203C12.994 27.8161 13.067 27.7962 13.1147 27.7504C16.311 24.6755 19.5137 21.6071 22.692 18.5131C23.6069 17.6208 23.5206 16.4869 22.5394 15.5449C21.3954 14.4491 20.2454 13.3609 19.0904 12.2785Z" fill="#00296C"/>
<path d="M41.7306 16.3522C41.6624 14.9658 40.888 14.0365 39.6523 13.5621C38.6414 13.1737 37.5577 12.9797 36.5167 12.6662C35.578 12.3843 34.5949 12.1708 33.739 11.7195C32.7216 11.1832 32.7884 9.95841 33.8376 9.47761C35.4266 8.74746 38.2667 8.70083 38.9992 11.1818C39.6962 11.1818 40.3927 11.1818 41.1096 11.1818C41.0722 9.81992 40.6003 8.73225 39.5001 7.97571C37.653 6.70743 33.7631 6.81639 31.9584 8.17061C30.0405 9.61215 30.168 12.3834 32.2643 13.531C33.0205 13.9449 33.8971 14.1566 34.735 14.403C35.8454 14.7296 36.9881 14.9542 38.0858 15.3157C38.8175 15.5572 39.3807 16.0371 39.3082 16.9482C39.2335 17.8806 38.604 18.326 37.8178 18.4779C36.3271 18.7669 36.0327 18.718 34.482 18.4442C33.6165 18.2908 33.0025 17.7197 32.698 16.8271L32.5589 16.2542L30.3896 16.243C30.4197 17.8415 30.9596 19.0932 32.2893 19.7594C34.7221 20.9754 37.6723 20.949 40.0779 19.6563C41.3433 18.9755 41.8008 17.759 41.7306 16.3522Z" fill="#00296C"/>
<path d="M127.564 9.29339C127.564 8.62468 127.564 8.07677 127.564 7.4081C126.692 7.4081 125.867 7.4081 124.927 7.4081C124.927 6.07946 124.927 4.86849 124.927 3.63477C124.121 3.63477 123.439 3.63477 122.622 3.63477C122.622 4.91033 122.622 6.11962 122.622 7.4213C121.835 7.4213 121.183 7.4213 120.502 7.4213C120.502 8.09756 120.502 8.6727 120.502 9.34475C121.213 9.34475 121.869 9.34475 122.647 9.34475C122.647 9.85053 122.643 10.2614 122.647 10.6717C122.675 13.2026 122.691 15.7327 122.739 18.2628C122.756 19.294 123.259 20.0641 124.305 20.214C125.363 20.3646 126.445 20.3345 127.546 20.3848C127.546 19.6291 127.546 19.0531 127.546 18.3914C126.99 18.3914 126.503 18.3855 126.017 18.3931C125.329 18.4069 124.95 18.083 124.947 17.3893C124.941 14.7571 124.944 12.1248 124.944 9.29284C125.903 9.29339 126.727 9.29339 127.564 9.29339Z" fill="#00296C"/>
<path d="M93.1408 7.12241C89.3632 6.84354 86.6081 9.32053 86.3055 13.268C85.9843 17.4609 88.336 20.3333 92.3425 20.6394C96.1635 20.9323 98.9962 18.4689 99.2887 14.5975C99.6169 10.2734 97.2769 7.42684 93.1408 7.12241ZM92.0585 18.6281C89.7705 18.2478 88.4958 16.1089 88.7464 13.0722C88.9388 10.7551 90.5921 9.1043 92.7381 9.08971C95.2535 9.07256 96.8766 10.9679 96.8727 13.9125C96.8657 17.0986 94.8322 19.0892 92.0585 18.6281Z" fill="#00296C"/>
<path d="M103.164 3.59826C102.388 3.55725 101.875 3.92972 101.817 4.73363C101.756 5.55214 102.248 5.93584 103.038 6.05607C103.769 5.99398 104.309 5.60495 104.327 4.83531C104.344 4.13673 103.919 3.63758 103.164 3.59826Z" fill="#00296C"/>
<path d="M81.447 7.84815C79.2552 6.59449 76.2283 6.90932 73.9862 8.6811L73.9896 7.48699C73.2393 7.48699 72.5596 7.48699 71.8691 7.48699C71.8691 13.4315 71.8691 19.294 71.8691 25.2272C72.5908 25.2272 73.271 25.2272 74.0657 25.2272C74.0657 23.1384 74.0657 21.116 74.0657 18.8814C76.2213 20.7684 78.4506 21.0531 80.7844 20.2213C83.1267 19.3847 84.1082 17.4475 84.4503 15.1095C84.8933 12.077 83.6752 9.12202 81.447 7.84815ZM82.1282 14.0156C82.0793 14.7096 81.9552 15.4137 81.748 16.0758C81.2305 17.7435 80.0334 18.6258 78.3335 18.6944C76.5721 18.7646 75.1884 17.9687 74.5303 16.4263C73.8073 14.7345 73.7969 13.0041 74.5354 11.3165C75.1884 9.81967 76.3713 9.06981 78.0185 9.08408C80.5547 9.08804 82.3307 11.1932 82.1282 14.0156Z" fill="#00296C"/>
<path d="M118.514 10.7034C118.435 8.6212 117.045 7.4063 114.987 7.16449C112.947 6.92465 111.068 7.33609 109.629 9.19665L109.622 7.48071C108.898 7.48071 108.223 7.48071 107.585 7.48071C107.585 11.7966 107.585 16.0362 107.585 20.2762C108.343 20.2762 109.023 20.2762 109.802 20.2762C109.802 19.7814 109.8 19.3644 109.802 18.9473C109.816 16.7649 109.737 14.5772 109.867 12.4027C110.016 9.86784 112.157 8.63834 114.655 9.20728C115.535 9.40784 116.124 10.0588 116.253 10.9862C116.348 11.6798 116.376 12.3864 116.381 13.0882C116.396 15.472 116.387 17.8546 116.387 20.297C117.154 20.297 117.803 20.297 118.546 20.297C118.545 17.028 118.636 13.8616 118.514 10.7034Z" fill="#00296C"/>
<path d="M102.006 20.2829C102.735 20.2829 103.392 20.2829 104.122 20.2829C104.122 15.9425 104.122 11.7142 104.122 7.48145C103.379 7.48145 102.701 7.48145 102.006 7.48145C102.006 11.7861 102.006 16.0159 102.006 20.2829Z" fill="#00296C"/>
</g>
<defs>
<clipPath id="clip0_3908_92970">
<rect width="127.24" height="27.9307" fill="white" transform="translate(0.379883 0.034668)"/>
</clipPath>
</defs>
</svg>
