<svg width="154" height="36" viewBox="0 0 154 36" fill="none" xmlns="http://www.w3.org/2000/svg">
<g clip-path="url(#clip0_3908_92998)">
<path d="M65.1181 22.2376L63.9178 15.1505C63.5755 13.1077 63.1379 9.91523 62.8044 7.70385H62.6742C62.3234 9.93199 61.8335 13.2149 61.4739 15.1677L60.1824 22.2376H65.1181ZM59.5376 26.8556L57.9778 34.7207H52.2153L59.4035 1.99902H66.4658L72.9953 34.7207H67.2028L65.6775 26.8556H59.5376Z" fill="#00296C"/>
<path d="M86.1098 20.1042C86.1098 19.668 86.1098 19.158 86.0229 18.6913C85.7932 17.0759 84.9313 15.6208 83.544 15.6208C81.1653 15.6208 80.2901 19.0371 80.2901 23.0325C80.2901 27.6235 81.5377 30.2367 83.4618 30.2367C84.3416 30.2367 85.3549 29.7873 85.9057 27.8605C86.0399 27.4765 86.1098 26.9626 86.1098 26.3622V20.1042ZM92.0241 1.13037V27.9349C92.0241 30.0592 92.1327 32.6728 92.2196 34.7156H87.1106L86.7778 31.9898H86.656C85.7979 33.6706 83.9312 35.0996 81.699 35.0996C76.8075 35.0996 74.3813 29.7184 74.3813 22.9238C74.3813 14.6447 77.999 10.6187 81.9419 10.6187C84.0049 10.6187 85.3386 11.6253 86.0112 13.0814H86.1105V1.13037H92.0241Z" fill="#00296C"/>
<path d="M104.343 30.5794C106.6 30.5794 107.159 26.338 107.159 22.8263C107.159 19.4878 106.6 15.1379 104.243 15.1379C101.747 15.1379 101.223 19.4878 101.223 22.8263C101.223 26.8563 101.882 30.5794 104.291 30.5794H104.343ZM104.23 35.1015C98.7797 35.1015 95.3613 30.7392 95.3613 22.9306C95.3613 14.4086 99.7503 10.6206 104.369 10.6206C109.746 10.6206 113.117 15.1953 113.117 22.7924C113.117 32.5538 107.836 35.1015 104.278 35.1015H104.23Z" fill="#00296C"/>
<path d="M122.338 26.2501C122.338 26.8417 122.447 27.3949 122.573 27.7656C123.166 29.7489 124.172 30.2367 124.977 30.2367C127.265 30.2367 128.188 27.3467 128.188 22.7251C128.188 18.5182 127.213 15.6208 124.951 15.6208C123.83 15.6208 122.885 16.8349 122.559 18.1391C122.446 18.5492 122.338 19.188 122.338 19.6286V26.2501ZM116.423 1.13037H122.338V13.4827H122.433C123.598 11.6598 125.15 10.6187 127.403 10.6187C131.861 10.6187 134.102 15.6725 134.102 22.2807C134.102 30.6301 130.761 35.0996 126.432 35.0996C124.37 35.0996 122.996 34.1879 121.756 31.8782H121.632L121.303 34.7156H116.225C116.312 32.7506 116.423 30.0592 116.423 27.9349V1.13037Z" fill="#00296C"/>
<path d="M148.275 20.6005C148.306 17.2709 147.326 14.9375 145.45 14.9375C143.309 14.9375 142.399 18.0611 142.335 20.6005H148.275ZM142.313 24.7691C142.383 29.0577 144.644 30.4533 147.452 30.4533C149.232 30.4533 150.757 30.0594 151.885 29.637L152.681 33.8783C151.113 34.5516 148.69 34.9749 146.368 34.9749C140.02 34.9749 136.554 30.6509 136.554 23.2658C136.554 15.3403 140.575 10.5801 145.827 10.5801C150.9 10.5801 153.712 14.7871 153.712 21.6544C153.712 23.2265 153.647 24.1121 153.543 24.8026L142.313 24.7691Z" fill="#00296C"/>
<path d="M24.9741 1.01709H39.1074V34.746L24.9741 1.01709Z" fill="#00296C"/>
<path d="M15.0173 1.01709H0.875977V34.746L15.0173 1.01709Z" fill="#00296C"/>
<path d="M13.8164 27.9609L19.9977 13.4463L29.0017 34.7451H23.1021L20.4087 27.9609H13.8164Z" fill="#00296C"/>
</g>
<defs>
<clipPath id="clip0_3908_92998">
<rect width="153.619" height="34.9134" fill="white" transform="translate(0.19043 0.543457)"/>
</clipPath>
</defs>
</svg>
