<svg width="154" height="38" viewBox="0 0 154 38" fill="none" xmlns="http://www.w3.org/2000/svg">
<path fill-rule="evenodd" clip-rule="evenodd" d="M14.0459 9.34961H24.4722C30.0703 9.34961 32.1777 12.2193 31.852 16.4354C31.3137 23.3958 27.1582 27.2467 21.6463 27.2467H18.8634C18.1072 27.2467 17.5985 27.7536 17.3939 29.1271L16.2124 37.1122C16.1343 37.63 15.8652 37.9298 15.4615 37.9707H8.91076C8.29442 37.9707 8.07641 37.4938 8.23786 36.4609L12.2319 10.8621C12.388 9.83747 12.9424 9.34961 14.0459 9.34961Z" fill="#00296C"/>
<path fill-rule="evenodd" clip-rule="evenodd" d="M59.3119 8.87451C62.8296 8.87451 66.0754 10.8068 65.6313 15.6223C65.093 21.3455 62.0652 24.5123 57.288 24.5259H53.1136C52.5135 24.5259 52.2228 25.0219 52.0667 26.0384L51.2594 31.2355C51.1382 32.0205 50.7399 32.4075 50.1531 32.4075H46.2695C45.6505 32.4075 45.4352 32.0068 45.5724 31.1102L48.7779 10.2807C48.9367 9.25608 49.3161 8.87451 50.0078 8.87451H59.3039H59.3119ZM52.9872 20.0264H56.1496C58.1278 19.9501 59.4411 18.563 59.573 16.0612C59.6537 14.5159 58.6229 13.4095 56.9839 13.4176L54.0072 13.4313L52.9872 20.0264ZM76.1895 30.8132C76.5448 30.4862 76.9054 30.3172 76.8543 30.7205L76.7278 31.6852C76.6632 32.1895 76.8596 32.4565 77.3226 32.4565H80.7733C81.3544 32.4565 81.6368 32.2194 81.7796 31.3092L83.9054 17.7971C84.0133 17.1186 83.8496 16.786 83.3406 16.786H79.5459C79.2037 16.786 79.0369 16.9795 78.9485 17.5083L78.8081 18.3395C78.7359 18.7728 78.5388 18.8491 78.3557 18.4131C77.7129 16.8705 76.0711 16.1783 73.7808 16.2329C68.4599 16.3446 64.8723 20.4353 64.4874 25.6787C64.1914 29.734 67.0604 32.9199 70.8445 32.9199C73.5897 32.9199 74.8169 32.1023 76.2003 30.8213L76.1895 30.8132ZM73.299 28.7337C71.0086 28.7337 69.4126 26.8833 69.7437 24.6158C70.0747 22.3484 72.217 20.4979 74.5074 20.4979C76.7977 20.4979 78.3937 22.3484 78.0625 24.6158C77.7316 26.8833 75.5921 28.7337 73.299 28.7337ZM90.6584 16.7424H87.1593C86.4386 16.7424 86.1445 17.2875 86.3734 17.958L90.7174 30.8377L86.4572 36.9669C86.0995 37.4792 86.3765 37.9453 86.88 37.9453H90.8121C91.0409 37.9721 91.2729 37.9316 91.4801 37.8288C91.6872 37.7258 91.8602 37.5647 91.9797 37.3648L105.34 17.9607C105.752 17.3638 105.558 16.737 104.882 16.737H101.16C100.522 16.737 100.267 16.9932 99.9004 17.5301L94.329 25.706L91.8401 17.511C91.6942 17.015 91.3311 16.7424 90.6608 16.7424H90.6584Z" fill="#00296C"/>
<path fill-rule="evenodd" clip-rule="evenodd" d="M119.237 8.87408C122.754 8.87408 126 10.8063 125.556 15.6219C125.018 21.3451 121.99 24.5119 117.213 24.5255H113.041C112.441 24.5255 112.15 25.0215 111.994 26.0381L111.186 31.2352C111.065 32.0201 110.667 32.407 110.081 32.407H106.197C105.578 32.407 105.363 32.0064 105.5 31.1098L108.711 10.2749C108.87 9.25022 109.249 8.86865 109.94 8.86865H119.237V8.87408ZM112.912 20.0261H116.074C118.053 19.9497 119.366 18.5626 119.497 16.0607C119.578 14.5155 118.548 13.409 116.908 13.4172L113.932 13.4308L112.912 20.0261ZM136.114 30.8127C136.469 30.4857 136.83 30.3167 136.779 30.7201L136.652 31.6848C136.588 32.189 136.784 32.4561 137.247 32.4561H140.698C141.279 32.4561 141.562 32.219 141.704 31.3087L143.831 17.7967C143.938 17.1181 143.774 16.7856 143.265 16.7856H139.476C139.134 16.7856 138.967 16.9791 138.878 17.5079L138.739 18.339C138.666 18.7723 138.469 18.8487 138.286 18.4127C137.643 16.8701 136.001 16.1779 133.711 16.2324C128.39 16.3442 124.803 20.4348 124.418 25.6783C124.121 29.7335 126.991 32.9194 130.774 32.9194C133.519 32.9194 134.747 32.1018 136.13 30.8209L136.114 30.8127ZM133.226 28.7334C130.936 28.7334 129.34 26.8829 129.671 24.6155C130.002 22.3479 132.145 20.4975 134.435 20.4975C136.725 20.4975 138.321 22.3479 137.99 24.6155C137.659 26.8829 135.516 28.7334 133.226 28.7334ZM149.14 32.4779H145.157C145.088 32.4811 145.019 32.4687 144.955 32.4416C144.891 32.4146 144.834 32.3735 144.787 32.3215C144.741 32.2694 144.706 32.2076 144.685 32.1404C144.665 32.0732 144.66 32.0024 144.67 31.9328L148.169 9.48732C148.202 9.33409 148.286 9.19692 148.406 9.09792C148.526 8.999 148.676 8.94407 148.831 8.94228H152.814C152.883 8.9391 152.953 8.95151 153.017 8.97851C153.08 9.00559 153.138 9.04663 153.184 9.09869C153.231 9.15075 153.266 9.21259 153.286 9.27978C153.306 9.34697 153.311 9.4178 153.301 9.48732L149.802 31.9328C149.77 32.087 149.687 32.2255 149.567 32.3256C149.446 32.4256 149.296 32.4812 149.14 32.4834V32.4779Z" fill="#00296C"/>
<path d="M26.2012 3.29661L26.2014 3.29685C27.5538 4.50536 28.3053 6.47106 28.1331 8.653C27.8237 12.5497 26.5253 15.5136 24.6061 17.4959C22.6931 19.4717 20.1098 20.529 17.1049 20.529H11.9589C11.3182 20.529 10.7229 20.758 10.2722 21.3047C9.85739 21.808 9.62107 22.5146 9.4887 23.3658L9.48863 23.3662L8.05167 32.6307C8.05167 32.6308 8.05159 32.6311 8.05159 32.6312C8.018 32.8447 7.96788 32.9404 7.94524 32.9728H1.57024C1.5578 32.9728 1.5471 32.9724 1.538 32.9718C1.52649 32.9318 1.51273 32.8616 1.5083 32.7498C1.50214 32.5943 1.51497 32.387 1.55645 32.1177C1.55648 32.1175 1.55651 32.1174 1.55654 32.1171L6.18551 2.41814L6.18554 2.41792C6.26099 1.93293 6.41154 1.69331 6.56536 1.56327C6.72116 1.43158 6.99661 1.31396 7.52356 1.31396H17.9607C19.431 1.31396 20.973 1.33922 22.4259 1.60921C23.874 1.87831 25.1779 2.38132 26.2012 3.29661Z" fill="#00296C" stroke="white" stroke-width="1.55171"/>
</svg>
