<svg width="36" height="36" viewBox="0 0 36 36" fill="none" xmlns="http://www.w3.org/2000/svg">
<g clip-path="url(#clip0_3908_92490)">
<path d="M34.9453 0H30.7266C30.1441 0 29.6719 0.472219 29.6719 1.05469V2.10937H27.9141C21.9047 2.10937 17.0156 6.99841 17.0156 13.0078V23.2734C17.0156 24.4753 16.0378 25.4531 14.8359 25.4531C13.6341 25.4531 12.6563 24.4753 12.6563 23.2734V6.32812H13.7109C14.2934 6.32812 14.7656 5.85591 14.7656 5.27344V1.05469C14.7656 0.472219 14.2934 0 13.7109 0H1.05469C0.472219 0 0 0.472219 0 1.05469V5.27344C0 5.85591 0.472219 6.32812 1.05469 6.32812H2.10938V23.2734C2.10938 30.2909 7.81847 36 14.8359 36C21.8534 36 27.5625 30.2909 27.5625 23.2734V13.0078C27.5625 12.814 27.7202 12.6562 27.9141 12.6562H29.6719V13.7109C29.6719 14.2934 30.1441 14.7656 30.7266 14.7656H34.9453C35.5278 14.7656 36 14.2934 36 13.7109V1.05469C36 0.472219 35.5278 0 34.9453 0ZM2.10938 2.10937H12.6563V4.21875H11.6016H3.16406H2.10938V2.10937ZM10.5469 6.32812V16.9453H4.21875V6.32812H10.5469ZM14.8359 33.8906C8.98158 33.8906 4.21875 29.1278 4.21875 23.2734V19.0547H10.5469V23.2734C10.5469 25.6385 12.4709 27.5625 14.8359 27.5625C17.201 27.5625 19.125 25.6385 19.125 23.2734V19.0547H25.4531V23.2734C25.4531 29.1278 20.6903 33.8906 14.8359 33.8906ZM27.9141 10.5469C26.5571 10.5469 25.4531 11.6509 25.4531 13.0078V16.9453H19.125V13.0078C19.125 8.16152 23.0678 4.21875 27.9141 4.21875H29.6719V10.5469H27.9141ZM33.8906 12.6562H31.7813V11.6016V3.16406V2.10937H33.8906V12.6562Z" fill="white"/>
<path d="M19.9707 29.6719C20.5532 29.6719 21.0254 29.1997 21.0254 28.6172C21.0254 28.0347 20.5532 27.5625 19.9707 27.5625C19.3882 27.5625 18.916 28.0347 18.916 28.6172C18.916 29.1997 19.3882 29.6719 19.9707 29.6719Z" fill="white"/>
<path d="M9.70508 29.6719C10.2876 29.6719 10.7598 29.1997 10.7598 28.6172C10.7598 28.0347 10.2876 27.5625 9.70508 27.5625C9.12259 27.5625 8.65039 28.0347 8.65039 28.6172C8.65039 29.1997 9.12259 29.6719 9.70508 29.6719Z" fill="white"/>
<path d="M7.38281 24.3281C7.9653 24.3281 8.4375 23.8559 8.4375 23.2734C8.4375 22.6909 7.9653 22.2188 7.38281 22.2188C6.80032 22.2188 6.32812 22.6909 6.32812 23.2734C6.32812 23.8559 6.80032 24.3281 7.38281 24.3281Z" fill="white"/>
<path d="M14.8359 31.7813C15.4184 31.7813 15.8906 31.3091 15.8906 30.7266C15.8906 30.1441 15.4184 29.6719 14.8359 29.6719C14.2534 29.6719 13.7812 30.1441 13.7812 30.7266C13.7812 31.3091 14.2534 31.7813 14.8359 31.7813Z" fill="white"/>
<path d="M22.2891 24.3281C22.8716 24.3281 23.3438 23.8559 23.3438 23.2734C23.3438 22.6909 22.8716 22.2188 22.2891 22.2188C21.7066 22.2188 21.2344 22.6909 21.2344 23.2734C21.2344 23.8559 21.7066 24.3281 22.2891 24.3281Z" fill="white"/>
</g>
<defs>
<clipPath id="clip0_3908_92490">
<rect width="36" height="36" fill="white"/>
</clipPath>
</defs>
</svg>
