<svg width="36" height="36" viewBox="0 0 36 36" fill="none" xmlns="http://www.w3.org/2000/svg">
<g clip-path="url(#clip0_3908_92502)">
<path d="M20.2656 14.6816C19.8774 14.6816 19.5625 14.9965 19.5625 15.3848V15.3888C19.5625 15.777 19.8774 16.0899 20.2656 16.0899C20.6539 16.0899 20.9688 15.7731 20.9688 15.3848C20.9688 14.9966 20.654 14.6816 20.2656 14.6816Z" fill="#2196F3"/>
<path d="M15.7295 14.6816C15.3412 14.6816 15.0264 14.9965 15.0264 15.3848V15.3888C15.0264 15.777 15.3412 16.0899 15.7295 16.0899C16.1178 16.0899 16.4326 15.7731 16.4326 15.3848C16.4326 14.9966 16.1178 14.6816 15.7295 14.6816Z" fill="#2196F3"/>
<path d="M20.2656 19.207C19.8774 19.207 19.5625 19.5239 19.5625 19.9121C19.5625 20.3004 19.8774 20.6152 20.2656 20.6152C20.6539 20.6152 20.9688 20.3004 20.9688 19.9121V19.9081C20.9688 19.5199 20.654 19.207 20.2656 19.207Z" fill="#2196F3"/>
<path d="M15.7295 19.207C15.3412 19.207 15.0264 19.5239 15.0264 19.9121C15.0264 20.3004 15.3412 20.6152 15.7295 20.6152C16.1178 20.6152 16.4326 20.3004 16.4326 19.9121V19.9081C16.4326 19.5199 16.1178 19.207 15.7295 19.207Z" fill="#2196F3"/>
<path d="M35.2969 13.2244H32.4399C32.1679 12.2783 31.2941 11.5838 30.2604 11.5838C29.2257 11.5838 28.3511 12.2783 28.0789 13.2244H23.8517C23.6294 12.5568 23.1 12.0284 22.4312 11.8067V10.2843C22.4312 9.49858 21.9182 8.83068 21.2093 8.59577V7.47435C21.2093 6.28621 20.2404 5.31955 19.0493 5.31955H18.7021V3.13825H24.0678C24.4561 3.13825 24.771 2.82339 24.771 2.43513C24.771 2.04686 24.4561 1.732 24.0678 1.732H18.7021V1.09082C18.7021 0.702555 18.3872 0.387695 17.9989 0.387695C17.6107 0.387695 17.2958 0.702555 17.2958 1.09082V1.732H11.9321C11.5438 1.732 11.229 2.04686 11.229 2.43513C11.229 2.82339 11.5438 3.13825 11.9321 3.13825H17.2958V5.31948H16.9486C15.7586 5.31948 14.7906 6.28614 14.7906 7.47428V8.59499C14.0806 8.82927 13.5668 9.49773 13.5668 10.2842V11.8066C12.8981 12.0282 12.3686 12.5566 12.1463 13.2242H7.91909C7.64712 12.2782 6.77334 11.5836 5.73954 11.5836C4.70573 11.5836 3.83196 12.2782 3.56006 13.2242H0.703125C0.314859 13.2242 0 13.5391 0 13.9274V21.3708C0 21.7591 0.314859 22.074 0.703125 22.074H3.56013C3.8321 23.02 4.70587 23.7146 5.73961 23.7146C6.77341 23.7146 7.64719 23.02 7.91916 22.074H12.1466C12.369 22.7407 12.8983 23.2683 13.5668 23.4897V27.7038C12.6187 27.9752 11.9225 28.8487 11.9225 29.8822C11.9225 30.9149 12.6187 31.7876 13.5668 32.0588V34.9075C13.5668 35.2958 13.8817 35.6107 14.2699 35.6107H21.728C22.1163 35.6107 22.4312 35.2958 22.4312 34.9075V32.0593C23.3803 31.7888 24.0774 30.9156 24.0774 29.8822C24.0774 28.848 23.3802 27.974 22.4312 27.7033V23.4897C23.0997 23.2684 23.629 22.7407 23.8514 22.074H28.0789C28.3511 23.02 29.2256 23.7146 30.2603 23.7146C31.2941 23.7146 32.1678 23.02 32.4398 22.074H35.2969C35.6851 22.074 36 21.7591 36 21.3708V20.8001C36 20.4119 35.6851 20.097 35.2969 20.097C34.9538 20.097 34.6681 20.3427 34.6062 20.6677H32.528V14.6305H34.6062C34.6681 14.9555 34.9538 15.2012 35.2969 15.2012C35.6851 15.2012 36 14.8863 36 14.4981V13.9274C36 13.5392 35.6851 13.2244 35.2969 13.2244ZM23.9659 14.6306H27.9907V20.6679H23.9659V14.6306ZM14.973 11.6931V10.2843C14.973 10.0823 15.1448 9.91159 15.3482 9.91159H20.6497C20.8531 9.91159 21.0249 10.0823 21.0249 10.2843V11.6931H14.973ZM16.9487 6.72573H19.0493C19.465 6.72573 19.8032 7.06155 19.8032 7.47428V8.50527H16.1969V7.47428C16.1968 7.06155 16.5341 6.72573 16.9487 6.72573ZM8.00733 14.6306H12.0322V20.6679H8.00733V14.6306ZM1.40625 14.6306H3.47196V20.6679H1.40625V14.6306ZM6.60108 21.4505C6.60108 21.9236 6.21464 22.3085 5.73961 22.3085C5.26465 22.3085 4.87821 21.9236 4.87821 21.4505V13.8479C4.87821 13.3748 5.26465 12.99 5.73961 12.99C6.21464 12.99 6.60108 13.3749 6.60108 13.8479V21.4505ZM21.0249 23.6033V27.6161H14.973V23.6033H21.0249ZM14.973 34.2046V32.1466H21.0249V34.2046H14.973ZM21.8098 30.7403H14.1902C13.7152 30.7403 13.3288 30.3554 13.3288 29.8824C13.3288 29.4082 13.7152 29.0225 14.1902 29.0225H21.8097C22.2847 29.0225 22.6711 29.4082 22.6711 29.8824C22.6712 30.3554 22.2847 30.7403 21.8098 30.7403ZM21.728 22.1971H14.2699C13.8114 22.1971 13.4384 21.8265 13.4384 21.371V13.9275C13.4384 13.4709 13.8115 13.0994 14.2699 13.0994H21.728C22.1865 13.0994 22.5596 13.4709 22.5596 13.9275V21.371C22.5596 21.8265 22.1865 22.1971 21.728 22.1971ZM31.1218 21.4505C31.1218 21.9236 30.7354 22.3085 30.2604 22.3085C29.7843 22.3085 29.397 21.9236 29.397 21.4505V13.8479C29.397 13.3748 29.7843 12.99 30.2604 12.99C30.7354 12.99 31.1218 13.3749 31.1218 13.8479V21.4505Z" fill="#2196F3"/>
<path d="M35.2969 16.9434C34.9086 16.9434 34.5938 17.2592 34.5938 17.6475C34.5938 18.0359 34.9086 18.3507 35.2969 18.3507C35.6851 18.3507 36 18.0358 36 17.6475V17.6456C36 17.2572 35.6851 16.9434 35.2969 16.9434Z" fill="#2196F3"/>
</g>
<defs>
<clipPath id="clip0_3908_92502">
<rect width="36" height="36" fill="white"/>
</clipPath>
</defs>
</svg>
