<svg width="36" height="36" viewBox="0 0 36 36" fill="none" xmlns="http://www.w3.org/2000/svg">
<g clip-path="url(#clip0_3908_92514)">
<g clip-path="url(#clip1_3908_92514)">
<path d="M25.3996 19.4347L23.2206 17.2558L28.9793 11.4971L29.7251 12.2428C30.208 12.7257 31.0206 12.6306 31.3752 12.0397L35.8497 4.58218C36.0987 4.1672 36.0333 3.63599 35.6911 3.29385L32.708 0.310856C32.3659 -0.0313538 31.8346 -0.0966738 31.4197 0.152232L23.9621 4.62676C23.3736 4.97987 23.2747 5.79254 23.759 6.27685L24.5048 7.02258L18.7461 12.7812L16.5671 10.6022C17.3341 7.73646 16.5518 4.6205 14.3825 2.45109C11.6689 -0.2624 7.60675 -0.691867 4.42997 1.01932C4.13649 1.17745 3.93504 1.46496 3.8866 1.7948C3.83822 2.12463 3.94861 2.45791 4.18437 2.69367L8.14238 6.65168C8.55364 7.06294 8.55364 7.73203 8.14238 8.14315C7.73113 8.5544 7.06211 8.55447 6.65085 8.14315L2.69284 4.18506C2.45708 3.9493 2.12373 3.83884 1.79396 3.88729C1.46413 3.93566 1.17662 4.13718 1.01849 4.43066C-0.68623 7.59556 -0.272372 11.6604 2.4504 14.3831C4.61496 16.5476 7.7293 17.3365 10.6016 16.5678L11.2888 17.255L1.54696 26.997C-0.515019 29.059 -0.516285 32.3916 1.54696 34.4549C3.6031 36.511 6.94862 36.5111 9.00483 34.4549L18.7466 24.7129L19.434 25.4002C18.667 28.266 19.4493 31.382 21.6186 33.5514C24.3322 36.2649 28.3943 36.6944 31.5711 34.9832C31.8646 34.8251 32.066 34.5376 32.1145 34.2078C32.1629 33.8779 32.0525 33.5446 31.8167 33.3089L27.8587 29.3509C27.4474 28.9396 27.4474 28.2705 27.8587 27.8594C28.27 27.4481 28.9391 27.4482 29.3502 27.8594L33.3083 31.8174C33.5439 32.0532 33.8773 32.1634 34.2071 32.1152C34.537 32.0668 34.8245 31.8653 34.9826 31.5718C36.6873 28.4069 36.2735 24.3421 33.5508 21.6194C31.3862 19.4549 28.2719 18.666 25.3996 19.4347ZM31.7988 2.38465L33.6172 4.20306L30.2614 9.79612L26.2057 5.74051L31.7988 2.38465ZM25.9963 8.51411L27.4877 10.0056L21.7291 15.7642L20.2376 14.2728L25.9963 8.51411ZM7.5133 32.9635C6.2796 34.1972 4.27219 34.1972 3.03842 32.9635C1.80057 31.7257 1.7998 29.7272 3.03842 28.4886L12.7802 18.7466L17.2551 23.2215L7.5133 32.9635ZM33.6747 29.2009L30.8418 26.3679C29.6082 25.1345 27.6009 25.1344 26.3672 26.3679C25.1337 27.6015 25.1337 29.6088 26.3672 30.8425L29.2002 33.6754C27.0478 34.2631 24.7343 33.684 23.1102 32.06C21.3913 30.3411 20.8077 27.7497 21.6233 25.4582C21.7599 25.0745 21.6634 24.6466 21.3755 24.3588L11.6431 14.6264C11.3558 14.3391 10.9282 14.2417 10.5437 14.3785C8.25207 15.1942 5.66078 14.6105 3.94186 12.8916C2.31779 11.2675 1.73877 8.95413 2.32644 6.80173L5.15939 9.63468C6.39295 10.8682 8.40022 10.8682 9.63392 9.63468C10.8675 8.40112 10.8675 6.39385 9.63392 5.16015L6.80097 2.3272C8.95329 1.73939 11.2668 2.31855 12.8909 3.94262C14.6098 5.66155 15.1935 8.2529 14.3778 10.5445C14.2413 10.9281 14.3377 11.356 14.6257 11.6439L24.358 21.3762C24.6459 21.6641 25.0738 21.7605 25.4574 21.624C27.7489 20.8084 30.3403 21.3921 32.0592 23.1109C33.6834 24.7351 34.2624 27.0485 33.6747 29.2009Z" fill="#2196F3"/>
<path d="M13.7138 22.4993C13.3019 22.0875 12.6342 22.0875 12.2223 22.4993L5.77761 28.9442C5.3658 29.3561 5.3658 30.0238 5.77761 30.4357C6.18957 30.8476 6.85719 30.8475 7.26908 30.4357L13.7137 23.9908C14.1255 23.5789 14.1255 22.9111 13.7138 22.4993Z" fill="#2196F3"/>
</g>
</g>
<defs>
<clipPath id="clip0_3908_92514">
<rect width="36" height="36" fill="white"/>
</clipPath>
<clipPath id="clip1_3908_92514">
<rect width="36" height="36" fill="white"/>
</clipPath>
</defs>
</svg>
