<svg width="36" height="36" viewBox="0 0 36 36" fill="none" xmlns="http://www.w3.org/2000/svg">
<g clip-path="url(#clip0_3908_92551)">
<path d="M17.9996 23.1429C18.7097 23.1429 19.2853 22.381 19.2853 21.4412V1.70168C19.2853 0.761842 18.7097 0 17.9996 0C17.2895 0 16.7139 0.761842 16.7139 1.70168V21.4412C16.7139 22.381 17.2895 23.1429 17.9996 23.1429Z" fill="#2196F3"/>
<path d="M20.8125 21.9375H15.1875C9.75966 21.9375 5.34375 26.3534 5.34375 31.7812V33.1875H3.9375C3.16083 33.1875 2.53125 33.8171 2.53125 34.5938C2.53125 35.3704 3.16083 36 3.9375 36H32.0625C32.8392 36 33.4688 35.3704 33.4688 34.5938C33.4688 33.8171 32.8392 33.1875 32.0625 33.1875H30.6563V31.7812C30.6563 26.3534 26.2403 21.9375 20.8125 21.9375ZM27.8438 33.1875H8.15625V31.7812C8.15625 27.9042 11.3105 24.75 15.1875 24.75H20.8125C24.6896 24.75 27.8438 27.9042 27.8438 31.7812V33.1875Z" fill="#2196F3"/>
</g>
<defs>
<clipPath id="clip0_3908_92551">
<rect width="36" height="36" fill="white"/>
</clipPath>
</defs>
</svg>
