<svg width="36" height="36" viewBox="0 0 36 36" fill="none" xmlns="http://www.w3.org/2000/svg">
<g clip-path="url(#clip0_3908_92539)">
<path d="M26.6496 12.6489C26.6496 5.6743 20.777 0 13.5587 0C6.34036 0 0.467773 5.6743 0.467773 12.6489V35.9791H9.19505V33.8709H13.5587C13.5587 32.3328 13.5587 24.7034 13.5587 23.3302H11.3769V27.5465H9.19505V23.3302H7.01323V12.6489C7.01323 9.1616 9.94952 6.32445 13.5587 6.32445C17.1678 6.32445 20.1041 9.1616 20.1041 12.6489V14.7571H26.6496V12.6489ZM11.3769 29.6546V31.7628H7.01323V33.8709H2.64959V25.4383H7.01323V29.6546H11.3769ZM22.286 12.6489C22.286 7.99917 18.3709 4.2163 13.5587 4.2163C8.74646 4.2163 4.83141 7.99917 4.83141 12.6489V23.3302H2.64959V12.6489C2.64959 6.83673 7.54341 2.10815 13.5587 2.10815C19.574 2.10815 24.4678 6.83673 24.4678 12.6489H22.286Z" fill="#2196F3"/>
<path d="M23.3772 16.0361L22.4731 17.33C21.7243 18.4008 20.1045 20.9126 20.1045 22.2064C20.1045 23.9501 21.5726 25.3686 23.3772 25.3686C25.1818 25.3686 26.6499 23.9501 26.6499 22.2064C26.6499 20.9126 25.0302 18.401 24.2814 17.33L23.3772 16.0361ZM23.3772 23.2605C22.7757 23.2605 22.2863 22.7876 22.2863 22.2076C22.295 21.8836 22.7486 20.949 23.3774 19.9039C24.0058 20.948 24.459 21.882 24.4681 22.2072C24.4677 22.788 23.9785 23.2605 23.3772 23.2605Z" fill="#2196F3"/>
</g>
<defs>
<clipPath id="clip0_3908_92539">
<rect width="36" height="36" fill="white"/>
</clipPath>
</defs>
</svg>
