<svg width="36" height="36" viewBox="0 0 36 36" fill="none" xmlns="http://www.w3.org/2000/svg">
<g clip-path="url(#clip0_3908_92526)">
<g clip-path="url(#clip1_3908_92526)">
<path d="M29.6719 21.2344V23.3438H24.3984C23.8169 23.3438 23.3438 22.8706 23.3438 22.2891V21.1641H25.3828V14.8359H23.3438V11.6016C23.3438 6.36757 19.0856 2.10938 13.8516 2.10938H6.32812V0H0V14.7656H6.32812V12.6562H11.7422C12.3237 12.6562 12.7969 13.1294 12.7969 13.7109V14.8359H10.6172V21.1641H12.7969V24.3984C12.7969 29.6324 17.0551 33.8906 22.2891 33.8906H29.6719V36H36V21.2344H29.6719ZM4.21875 12.6562H2.10938V2.10938H4.21875V12.6562ZM11.7422 10.5469H6.32812V4.21875H13.8516C17.9224 4.21875 21.2344 7.53068 21.2344 11.6016V14.8359H14.9062V13.7109C14.9062 11.9663 13.4869 10.5469 11.7422 10.5469ZM12.7266 16.9453H23.2734V19.0547H12.7266V16.9453ZM22.2891 31.7812C18.2182 31.7812 14.9062 28.4693 14.9062 24.3984V21.1641H21.2344V22.2891C21.2344 24.0337 22.6538 25.4531 24.3984 25.4531H29.6719V31.7812H22.2891ZM33.8906 33.8906H31.7812V23.3438H33.8906V33.8906Z" fill="#2196F3"/>
</g>
</g>
<defs>
<clipPath id="clip0_3908_92526">
<rect width="36" height="36" fill="white"/>
</clipPath>
<clipPath id="clip1_3908_92526">
<rect width="36" height="36" fill="white"/>
</clipPath>
</defs>
</svg>
