<svg width="149" height="42" viewBox="0 0 149 42" fill="none" xmlns="http://www.w3.org/2000/svg">
<path fill-rule="evenodd" clip-rule="evenodd" d="M24.509 38.3756L21.0118 40.3533C19.6061 40.9958 18.0767 40.9064 16.7386 40.1354L3.58161 32.5877C2.09724 31.7385 1.23135 30.2468 1.23135 28.5428V13.453C1.23135 11.749 2.09724 10.2629 3.58161 9.40813L16.7386 1.8604C18.2229 1.01121 19.9547 1.01121 21.4391 1.8604L24.4865 3.60906C24.6665 2.39114 25.7235 1.45815 26.9942 1.45815H29.8505C31.2449 1.45815 32.3863 2.58668 32.3863 3.97778V8.14552C34.6354 9.43606 36.9463 10.3467 36.9463 13.4585V28.554C36.9463 30.258 36.0804 31.7441 34.596 32.5988L24.509 38.3756ZM29.1308 37.1353L22.1756 41.1243H22.1925C20.2977 42.2919 17.8968 42.2919 15.9964 41.1243L2.96312 33.6492C1.09641 32.5765 0 30.6882 0 28.5484V13.453C0 11.3132 1.10203 9.41931 2.96312 8.35223L16.1201 0.804496C17.9868 -0.268165 20.1852 -0.268165 22.0519 0.804496L23.8849 1.85481C25.2793 -0.156431 27.4215 0.229056 29.8449 0.229056C31.9196 0.229056 33.6121 1.90509 33.6121 3.9722V7.43041L35.2089 8.34664C37.0756 9.4193 38.172 11.3076 38.172 13.4474V28.5428C38.172 30.6826 37.07 32.5765 35.2089 33.6436L29.1308 37.1353Z" fill="#00296C"/>
<path d="M27.0784 20.9616V35.6324L27.9612 35.1296V20.9616C27.9612 20.7213 27.7644 20.5258 27.5226 20.5258C27.2808 20.5202 27.0784 20.7213 27.0784 20.9616ZM31.2785 8.7768V3.97776C31.2785 3.19561 30.6375 2.55872 29.8504 2.55872H26.9941C26.2069 2.55872 25.5659 3.19561 25.5659 3.97776V5.50295L20.8879 2.82129C19.7465 2.16764 18.4364 2.16764 17.2951 2.82129L4.13811 10.369C2.99672 11.0227 2.33887 12.1512 2.33887 13.4585V28.554C2.33887 29.8669 2.99109 30.9898 4.13811 31.6435L8.93421 34.3978V30.2412V28.0624V24.0119V22.4812V20.9504C8.93421 20.671 9.16473 20.442 9.44587 20.442H9.51334V19.2352V18.5816C8.97357 17.9224 8.29885 17.6654 7.3655 18.2296C7.3655 18.4252 7.20806 18.5816 7.01127 18.5816H5.94859C5.7518 18.5816 5.59437 18.4252 5.59437 18.2296V15.2184C5.59437 15.0228 5.7518 14.8664 5.94859 14.8664H7.01127C7.20806 14.8664 7.3655 15.0228 7.3655 15.2184C8.05708 15.7435 8.74866 15.7826 9.43462 14.8664H9.50772H9.51334H9.53021H9.54707H9.56394H9.58081H9.59768H9.61455H9.63141H9.64828H9.66515H9.68202H9.69889H9.71575H9.73262H9.74949H9.76636H9.78322H9.80009H9.81696H9.83383H9.8507H9.86756H9.88443H9.9013H9.91817H9.93504H9.9519H9.96877H9.98564H10.0025H10.0194H10.0362H10.0531H10.07H10.0925H10.1093H10.1262H10.1431H10.1599H10.1768H10.1937H10.2105H10.2274H10.2443H10.2611H10.278H10.2949H10.3118H10.3286H10.3455H10.3624H10.3792H10.3961H10.413H10.4298H10.4467H10.4636H10.4804H10.4973H10.5142H11.3801H11.4869V14.872C13.691 14.9949 15.6083 16.129 16.3729 17.7771C16.3167 17.7101 16.2661 17.8944 16.1986 17.8386C15.552 17.2408 14.5287 16.7044 13.5391 16.8665C12.5833 17.0229 11.8074 17.5648 11.4813 18.2799V18.5816V19.2352V20.442H11.5319C11.813 20.442 12.0435 20.671 12.0491 20.956V24.0119V28.0624V36.1855L17.2894 39.1912C17.4131 39.2638 17.5368 39.3253 17.6661 39.3812V30.8613L16.8171 30.1071L15.3271 29.973C14.7761 29.9228 14.3263 29.5261 14.3263 28.9786V27.9841H23.6824V28.9786C23.6824 29.5261 23.2269 29.9283 22.6815 29.973L21.1915 30.1071L20.3425 30.8613V39.4482C20.5281 39.3756 20.708 39.2918 20.8823 39.1912L25.9595 36.2749V20.2576C25.0487 19.7269 24.4358 18.7827 24.4358 17.6151C24.4358 16.4474 25.1442 15.358 26.1676 14.8608V17.8497L27.517 18.8274L28.8664 17.8497V14.8608C29.8897 15.358 30.5982 16.4474 30.5982 17.6151C30.5982 18.7827 29.9853 19.7269 29.0745 20.2576V34.4816L34.0336 31.6379C35.175 30.9842 35.8329 29.8557 35.8329 28.5484V13.4529C35.8329 12.14 35.1806 11.0171 34.0336 10.3634L31.2785 8.7768ZM22.7659 21.5705H23.688V27.5484H14.3263V21.5705H15.6083L15.9119 24.2242L16.2998 21.5705H18.92L19.2292 25.336L19.5891 21.5705H20.8429L21.2365 23.1181L21.3715 21.5705H22.1811L22.3498 25.336L22.7659 21.5705Z" fill="#2196F3"/>
<path d="M44.68 29V11.72H47.572V18.992H55.756V11.72H58.636V29H55.756V21.704H47.572V29H44.68ZM67.2443 29.36C65.9483 29.36 64.8163 29.068 63.8483 28.484C62.8803 27.9 62.1283 27.096 61.5923 26.072C61.0643 25.04 60.8003 23.856 60.8003 22.52C60.8003 21.16 61.0723 19.968 61.6163 18.944C62.1603 17.92 62.9163 17.12 63.8843 16.544C64.8523 15.968 65.9723 15.68 67.2443 15.68C68.5483 15.68 69.6843 15.972 70.6523 16.556C71.6203 17.14 72.3723 17.948 72.9083 18.98C73.4443 20.004 73.7123 21.184 73.7123 22.52C73.7123 23.864 73.4403 25.052 72.8963 26.084C72.3603 27.108 71.6083 27.912 70.6403 28.496C69.6723 29.072 68.5403 29.36 67.2443 29.36ZM67.2443 26.648C68.3963 26.648 69.2523 26.264 69.8123 25.496C70.3723 24.728 70.6523 23.736 70.6523 22.52C70.6523 21.264 70.3683 20.264 69.8003 19.52C69.2323 18.768 68.3803 18.392 67.2443 18.392C66.4683 18.392 65.8283 18.568 65.3243 18.92C64.8283 19.264 64.4603 19.748 64.2203 20.372C63.9803 20.988 63.8603 21.704 63.8603 22.52C63.8603 23.776 64.1443 24.78 64.7123 25.532C65.2883 26.276 66.1323 26.648 67.2443 26.648ZM80.7363 29.372C79.7763 29.372 78.9843 29.212 78.3603 28.892C77.7363 28.572 77.2403 28.164 76.8723 27.668C76.5043 27.172 76.2323 26.644 76.0563 26.084C75.8803 25.524 75.7643 24.996 75.7083 24.5C75.6603 23.996 75.6363 23.588 75.6363 23.276V16.04H78.5643V22.28C78.5643 22.68 78.5923 23.132 78.6483 23.636C78.7043 24.132 78.8323 24.612 79.0323 25.076C79.2403 25.532 79.5443 25.908 79.9443 26.204C80.3523 26.5 80.9003 26.648 81.5883 26.648C81.9563 26.648 82.3203 26.588 82.6803 26.468C83.0403 26.348 83.3643 26.144 83.6523 25.856C83.9483 25.56 84.1843 25.156 84.3603 24.644C84.5363 24.132 84.6243 23.484 84.6243 22.7L86.3403 23.432C86.3403 24.536 86.1243 25.536 85.6923 26.432C85.2683 27.328 84.6403 28.044 83.8083 28.58C82.9763 29.108 81.9523 29.372 80.7363 29.372ZM84.9723 29V24.98H84.6243V16.04H87.5283V29H84.9723ZM95.4237 29.36C93.8237 29.36 92.5237 29 91.5237 28.28C90.5237 27.56 89.9157 26.548 89.6997 25.244L92.6517 24.788C92.8037 25.428 93.1397 25.932 93.6597 26.3C94.1797 26.668 94.8357 26.852 95.6277 26.852C96.3237 26.852 96.8597 26.716 97.2357 26.444C97.6197 26.164 97.8117 25.784 97.8117 25.304C97.8117 25.008 97.7397 24.772 97.5957 24.596C97.4597 24.412 97.1557 24.236 96.6837 24.068C96.2117 23.9 95.4877 23.688 94.5117 23.432C93.4237 23.144 92.5597 22.836 91.9197 22.508C91.2797 22.172 90.8197 21.776 90.5397 21.32C90.2597 20.864 90.1197 20.312 90.1197 19.664C90.1197 18.856 90.3317 18.152 90.7557 17.552C91.1797 16.952 91.7717 16.492 92.5317 16.172C93.2917 15.844 94.1877 15.68 95.2197 15.68C96.2277 15.68 97.1197 15.836 97.8957 16.148C98.6797 16.46 99.3117 16.904 99.7917 17.48C100.272 18.056 100.568 18.732 100.68 19.508L97.7277 20.036C97.6557 19.484 97.4037 19.048 96.9717 18.728C96.5477 18.408 95.9797 18.228 95.2677 18.188C94.5877 18.148 94.0397 18.252 93.6237 18.5C93.2077 18.74 92.9997 19.08 92.9997 19.52C92.9997 19.768 93.0837 19.98 93.2517 20.156C93.4197 20.332 93.7557 20.508 94.2597 20.684C94.7717 20.86 95.5317 21.076 96.5397 21.332C97.5717 21.596 98.3957 21.9 99.0117 22.244C99.6357 22.58 100.084 22.984 100.356 23.456C100.636 23.928 100.776 24.5 100.776 25.172C100.776 26.476 100.3 27.5 99.3477 28.244C98.4037 28.988 97.0957 29.36 95.4237 29.36ZM108.816 29.36C107.504 29.36 106.352 29.076 105.36 28.508C104.368 27.94 103.592 27.152 103.032 26.144C102.48 25.136 102.204 23.976 102.204 22.664C102.204 21.248 102.476 20.02 103.02 18.98C103.564 17.932 104.32 17.12 105.288 16.544C106.256 15.968 107.376 15.68 108.648 15.68C109.992 15.68 111.132 15.996 112.068 16.628C113.012 17.252 113.712 18.136 114.168 19.28C114.624 20.424 114.796 21.772 114.684 23.324H111.816V22.268C111.808 20.86 111.56 19.832 111.072 19.184C110.584 18.536 109.816 18.212 108.768 18.212C107.584 18.212 106.704 18.58 106.128 19.316C105.552 20.044 105.264 21.112 105.264 22.52C105.264 23.832 105.552 24.848 106.128 25.568C106.704 26.288 107.544 26.648 108.648 26.648C109.36 26.648 109.972 26.492 110.484 26.18C111.004 25.86 111.404 25.4 111.684 24.8L114.54 25.664C114.044 26.832 113.276 27.74 112.236 28.388C111.204 29.036 110.064 29.36 108.816 29.36ZM104.352 23.324V21.14H113.268V23.324H104.352Z" fill="#00296C"/>
<path d="M116.882 29V11.72H127.286V14.612H119.774V18.92H125.846V21.8H119.774V29H116.882ZM129.204 14.072V11.42H132.096V14.072H129.204ZM129.204 29V16.04H132.096V29H129.204ZM133.771 29L138.511 22.448L133.867 16.04H137.275L140.191 20.18L143.059 16.04H146.467L141.823 22.448L146.587 29H143.179L140.191 24.716L137.179 29H133.771Z" fill="#2196F3"/>
</svg>
