<svg width="64" height="64" viewBox="0 0 64 64" fill="none" xmlns="http://www.w3.org/2000/svg">
<g clip-path="url(#clip0_3919_89902)">
<path d="M57.0505 24.7141C55.9208 24.1294 54.2185 24.3128 53.1502 26.0972C53.1472 26.1023 53.1441 26.1074 53.1412 26.1126L49.1946 32.9734C48.0545 32.3868 46.6168 32.6759 45.799 33.7257C45.5165 34.0885 44.5831 35.3311 43.5952 36.6467C43.0536 37.3678 42.5122 38.0888 42.094 38.6432C41.7563 39.091 41.8454 39.7279 42.2931 40.0656C42.741 40.4036 43.3776 40.3143 43.7153 39.8665C44.1341 39.3112 44.6766 38.589 45.2191 37.8667C46.1584 36.6161 47.1296 35.3228 47.4012 34.9741C47.6329 34.6765 48.0778 34.6188 48.3729 34.8485C48.592 35.0188 48.5803 35.436 48.3381 36.0884C47.4762 38.4102 46.4052 40.7304 45.3997 42.454C45.1171 42.9386 45.2806 43.5604 45.7651 43.8431C46.2497 44.1257 46.8714 43.9621 47.1539 43.4777C48.2157 41.6574 49.3412 39.2219 50.2421 36.7953C50.5545 35.9535 50.6113 35.2796 50.5201 34.7423L54.8968 27.1339C55.2505 26.5472 55.7176 26.3113 56.1172 26.5181C56.3916 26.6601 56.624 27.0251 56.378 27.5866C56.0817 28.2413 55.4439 29.8615 54.637 31.9114C53.569 34.6244 52.2401 38.001 51.1168 40.6283C49.7485 43.8292 49.2216 44.6023 46.779 46.9916L42.8865 50.7996C42.6296 51.051 42.5246 51.4196 42.6105 51.7686L43.9666 57.2753C43.9683 57.2819 43.9699 57.2886 43.9717 57.2953C43.994 57.3783 43.9465 57.4482 43.9217 57.4678H35.9846C35.2306 57.4678 35.0687 57.2528 34.9002 56.7964C32.9081 51.4003 34.9629 48.3031 36.9756 46.2077C37.3641 45.8031 37.3511 45.1602 36.9467 44.7717C36.5423 44.3831 35.8995 44.3959 35.5109 44.8005C34.0279 46.3446 33.0466 47.9212 32.5192 49.6085C32.3028 48.9206 32.0114 48.2502 31.6436 47.5954C30.2633 45.1375 28.0197 43.3367 26.2169 41.8896C25.1686 41.0482 24.1783 40.2534 23.6205 39.5372C23.3492 39.1889 22.3787 37.8966 21.4402 36.6469C20.4521 35.3312 19.5188 34.0886 19.2363 33.7258C18.4185 32.676 16.9809 32.3868 15.8407 32.9735L11.894 26.1126C11.8911 26.1074 11.888 26.1023 11.885 26.0972C10.8166 24.3128 9.11425 24.1294 7.98457 24.7141C6.84596 25.3036 6.07382 26.7627 6.80098 28.4108C6.8024 28.414 6.80382 28.4171 6.80524 28.4203C7.00092 28.8517 7.3943 29.8357 7.71518 30.6447C7.92202 31.1661 8.5125 31.4211 9.03352 31.2143C9.55485 31.0074 9.80982 30.417 9.60298 29.8957C9.10968 28.6518 8.82647 27.9604 8.6573 27.5867C8.41146 27.0252 8.6438 26.6602 8.91817 26.5182C9.31795 26.3114 9.78495 26.5474 10.1387 27.1341L14.5153 34.7424C14.4241 35.2797 14.4808 35.9536 14.7934 36.7954C15.6941 39.2219 16.8197 41.6574 17.8815 43.4777C18.1642 43.9621 18.7859 44.1257 19.2703 43.8431C19.7546 43.5604 19.9182 42.9385 19.6356 42.454C18.6301 40.7303 17.559 38.4101 16.6971 36.0884C16.455 35.436 16.4433 35.0189 16.6626 34.8484C16.9574 34.6192 17.4025 34.6766 17.6341 34.9741C17.9056 35.3228 18.877 36.6161 19.8163 37.8668C20.8036 39.1813 21.7361 40.4229 22.0184 40.7854C22.7221 41.6889 23.8022 42.556 24.9458 43.4738C28.6004 46.4071 32.7428 49.732 30.135 56.7963C29.9664 57.2527 29.8045 57.4677 29.0506 57.4677H21.1135C21.0887 57.4482 21.0412 57.3782 21.0634 57.2952C21.0653 57.2886 21.067 57.2819 21.0686 57.2752L22.4246 51.7685C22.5106 51.4195 22.4056 51.051 22.1486 50.7995L18.2561 46.9915C15.8137 44.6022 15.2867 43.8291 13.9184 40.6281C13.6372 39.9706 13.3213 39.2139 12.9791 38.3793C12.7664 37.8603 12.1733 37.6119 11.6544 37.8249C11.1355 38.0376 10.8873 38.6309 11.1 39.1499C11.4509 40.0057 11.762 40.7505 12.051 41.4266C13.5266 44.8786 14.1974 45.8623 16.8362 48.4436L20.3139 51.8459L19.0987 56.7808C18.9273 57.4353 19.0708 58.146 19.4838 58.6844C19.8809 59.202 20.4698 59.4989 21.0996 59.4989H29.0505C30.5655 59.4989 31.5434 58.845 32.04 57.4997C32.2279 56.9909 32.3867 56.4916 32.5185 56.0007C32.6494 56.4936 32.8081 56.9934 32.995 57.4997C33.4916 58.845 34.4696 59.4989 35.9845 59.4989H43.9354C44.5652 59.4989 45.1541 59.202 45.5513 58.6844C45.9641 58.1462 46.1078 57.4356 45.9365 56.7812L44.7211 51.846L48.1989 48.4437C50.8375 45.8624 51.5084 44.8786 52.9841 41.4267C54.1187 38.7724 55.4537 35.3807 56.5265 32.6553C57.2936 30.7068 57.9559 29.0241 58.2298 28.42C58.2313 28.4168 58.2326 28.4137 58.234 28.4105C58.9615 26.7627 58.1892 25.3036 57.0505 24.7141Z" fill="#2196F3"/>
<path d="M11.3515 34.5215C11.3515 33.9606 10.8969 33.5059 10.3361 33.5059H10.3353C9.77452 33.5059 9.32031 33.9606 9.32031 34.5215C9.32031 35.0824 9.77523 35.5371 10.3361 35.5371C10.8969 35.5371 11.3515 35.0823 11.3515 34.5215Z" fill="#2196F3"/>
<path d="M39.682 41.481C39.1213 41.481 38.667 41.9357 38.667 42.4966C38.667 43.0575 39.1219 43.5122 39.6827 43.5122C40.2436 43.5122 40.6982 43.0575 40.6982 42.4966C40.6982 41.9357 40.2435 41.481 39.6827 41.481H39.682Z" fill="#2196F3"/>
<path d="M16.2725 24.3282H25.5316C25.4528 24.7536 25.4113 25.1902 25.4113 25.6343V27.3753C25.4113 27.9362 25.8659 28.3909 26.4268 28.3909H38.6121C39.1728 28.3909 39.6275 27.9362 39.6275 27.3753V25.6343C39.6275 25.1903 39.586 24.7537 39.5072 24.3282H48.7665C49.3272 24.3282 49.7819 23.8735 49.7819 23.3126V21.5716C49.7819 19.2049 48.6253 17.0428 46.7071 15.723C47.0033 15.1236 47.1707 14.4495 47.1707 13.7368V11.9959C47.1707 9.5158 45.1534 7.49805 42.6738 7.49805C40.1941 7.49805 38.1768 9.51569 38.1768 11.9959V13.7369C38.1768 14.4507 38.3447 15.1258 38.6418 15.726C38.0171 16.1594 37.4696 16.6874 37.0164 17.2847V16.0585C37.0164 13.5784 34.9991 11.5607 32.5194 11.5607C30.0397 11.5607 28.0224 13.5783 28.0224 16.0585V17.2849C27.5692 16.6875 27.0216 16.1594 26.3969 15.726C26.694 15.1258 26.8619 14.4508 26.8619 13.7369V11.9959C26.8619 9.5158 24.8446 7.49805 22.3649 7.49805C19.8852 7.49805 17.8679 9.51569 17.8679 11.9959V13.7369C17.8679 14.4496 18.0353 15.1237 18.3315 15.7231C16.4132 17.0427 15.2568 19.2041 15.2568 21.5717V23.3127C15.257 23.8735 15.7117 24.3282 16.2725 24.3282ZM37.5966 26.3597H27.4422V25.6343C27.4422 23.9161 28.3453 22.2955 29.7826 21.3649C30.5413 21.9489 31.4902 22.2973 32.5194 22.2973C33.5492 22.2973 34.4986 21.9485 35.2574 21.3639C35.4768 21.5046 35.6827 21.6606 35.875 21.8294C35.9068 21.8617 35.9402 21.8922 35.9761 21.9201C36.5 22.4053 36.9122 22.9917 37.1898 23.6414C37.2036 23.6817 37.22 23.7207 37.2386 23.7586C37.4715 24.3442 37.5965 24.9782 37.5965 25.6342V26.3597H37.5966ZM47.751 21.5717V22.2971H38.7982C38.4959 21.7294 38.1166 21.2041 37.669 20.7357C37.9061 19.333 38.7358 18.08 39.9384 17.3034C40.6969 17.8867 41.6453 18.2347 42.6738 18.2347C43.7036 18.2347 44.6529 17.8859 45.4118 17.3013C46.8673 18.2348 47.751 19.8256 47.751 21.5717ZM40.2076 11.9959C40.2076 10.6358 41.3139 9.5293 42.6737 9.5293C44.0335 9.5293 45.1397 10.6358 45.1397 11.9959V13.7369C45.1397 15.097 44.0334 16.2035 42.6737 16.2035C41.3138 16.2035 40.2076 15.097 40.2076 13.7369V11.9959ZM30.0533 16.0585C30.0533 14.6984 31.1596 13.5919 32.5194 13.5919C33.8792 13.5919 34.9855 14.6984 34.9855 16.0585V17.7996C34.9855 19.1596 33.8792 20.2661 32.5194 20.2661C31.1596 20.2661 30.0533 19.1596 30.0533 17.7996V16.0585ZM19.899 11.9959C19.899 10.6358 21.0053 9.5293 22.3651 9.5293C23.7249 9.5293 24.8312 10.6358 24.8312 11.9959V13.7369C24.8312 15.097 23.7249 16.2035 22.3651 16.2035C21.0053 16.2035 19.899 15.097 19.899 13.7369V11.9959ZM17.2879 21.5717C17.2879 19.825 18.1716 18.2347 19.6271 17.3014C20.386 17.886 21.3354 18.2348 22.3651 18.2348C23.3937 18.2348 24.342 17.8868 25.1005 17.3035C26.3028 18.08 27.1326 19.3331 27.3699 20.7354C26.9221 21.2038 26.5426 21.7293 26.2403 22.2972H17.288V21.5717H17.2879Z" fill="#2196F3"/>
</g>
<defs>
<clipPath id="clip0_3919_89902">
<rect width="52" height="52" fill="white" transform="translate(6 6)"/>
</clipPath>
</defs>
</svg>
