<svg width="12" height="12" viewBox="0 0 12 12" fill="none" xmlns="http://www.w3.org/2000/svg">
<g clip-path="url(#clip0_3908_93108)">
<path d="M9.04688 5.39014C9.30576 5.39014 9.51562 5.18027 9.51562 4.92139C9.51562 4.6625 9.30576 4.45264 9.04688 4.45264C8.78799 4.45264 8.57812 4.6625 8.57812 4.92139C8.57812 5.18027 8.78799 5.39014 9.04688 5.39014Z" fill="#2196F3"/>
<path d="M10.125 0.9375H9.51562V0.46875C9.51562 0.209859 9.30577 0 9.04688 0C8.78798 0 8.57812 0.209859 8.57812 0.46875V0.9375H6.44531V0.46875C6.44531 0.209859 6.23545 0 5.97656 0C5.71767 0 5.50781 0.209859 5.50781 0.46875V0.9375H3.39844V0.46875C3.39844 0.209859 3.18858 0 2.92969 0C2.6708 0 2.46094 0.209859 2.46094 0.46875V0.9375H1.875C0.841125 0.9375 0 1.77863 0 2.8125V10.125C0 11.1589 0.841125 12 1.875 12H5.46094C5.71983 12 5.92969 11.7901 5.92969 11.5312C5.92969 11.2724 5.71983 11.0625 5.46094 11.0625H1.875C1.35806 11.0625 0.9375 10.6419 0.9375 10.125V2.8125C0.9375 2.29556 1.35806 1.875 1.875 1.875H2.46094V2.34375C2.46094 2.60264 2.6708 2.8125 2.92969 2.8125C3.18858 2.8125 3.39844 2.60264 3.39844 2.34375V1.875H5.50781V2.34375C5.50781 2.60264 5.71767 2.8125 5.97656 2.8125C6.23545 2.8125 6.44531 2.60264 6.44531 2.34375V1.875H8.57812V2.34375C8.57812 2.60264 8.78798 2.8125 9.04688 2.8125C9.30577 2.8125 9.51562 2.60264 9.51562 2.34375V1.875H10.125C10.6419 1.875 11.0625 2.29556 11.0625 2.8125V5.48438C11.0625 5.74327 11.2724 5.95312 11.5312 5.95312C11.7901 5.95312 12 5.74327 12 5.48438V2.8125C12 1.77863 11.1589 0.9375 10.125 0.9375Z" fill="#2196F3"/>
<path d="M9.16406 6.32812C7.60031 6.32812 6.32812 7.60056 6.32812 9.1646C6.32812 10.7287 7.60031 12.0011 9.16406 12.0011C10.7278 12.0011 12 10.7287 12 9.1646C12 7.60056 10.7278 6.32812 9.16406 6.32812ZM9.16406 11.0634C8.11727 11.0634 7.26562 10.2116 7.26562 9.1646C7.26562 8.11759 8.11727 7.2658 9.16406 7.2658C10.2109 7.2658 11.0625 8.11759 11.0625 9.1646C11.0625 10.2116 10.2109 11.0634 9.16406 11.0634Z" fill="#2196F3"/>
<path d="M9.84668 8.69531H9.63574V8.20312C9.63574 7.94423 9.42588 7.73438 9.16699 7.73438C8.9081 7.73438 8.69824 7.94423 8.69824 8.20312V9.16406C8.69824 9.42295 8.9081 9.63281 9.16699 9.63281H9.84668C10.1056 9.63281 10.3154 9.42295 10.3154 9.16406C10.3154 8.90517 10.1056 8.69531 9.84668 8.69531Z" fill="#2196F3"/>
<path d="M7.01074 5.39014C7.26963 5.39014 7.47949 5.18027 7.47949 4.92139C7.47949 4.6625 7.26963 4.45264 7.01074 4.45264C6.75186 4.45264 6.54199 4.6625 6.54199 4.92139C6.54199 5.18027 6.75186 5.39014 7.01074 5.39014Z" fill="#2196F3"/>
<path d="M4.96875 7.42969C5.22763 7.42969 5.4375 7.21982 5.4375 6.96094C5.4375 6.70205 5.22763 6.49219 4.96875 6.49219C4.70987 6.49219 4.5 6.70205 4.5 6.96094C4.5 7.21982 4.70987 7.42969 4.96875 7.42969Z" fill="#2196F3"/>
<path d="M2.92676 5.39014C3.18564 5.39014 3.39551 5.18027 3.39551 4.92139C3.39551 4.6625 3.18564 4.45264 2.92676 4.45264C2.66787 4.45264 2.45801 4.6625 2.45801 4.92139C2.45801 5.18027 2.66787 5.39014 2.92676 5.39014Z" fill="#2196F3"/>
<path d="M2.92676 7.42969C3.18564 7.42969 3.39551 7.21982 3.39551 6.96094C3.39551 6.70205 3.18564 6.49219 2.92676 6.49219C2.66787 6.49219 2.45801 6.70205 2.45801 6.96094C2.45801 7.21982 2.66787 7.42969 2.92676 7.42969Z" fill="#2196F3"/>
<path d="M2.92676 9.46924C3.18564 9.46924 3.39551 9.25937 3.39551 9.00049C3.39551 8.74161 3.18564 8.53174 2.92676 8.53174C2.66787 8.53174 2.45801 8.74161 2.45801 9.00049C2.45801 9.25937 2.66787 9.46924 2.92676 9.46924Z" fill="#2196F3"/>
<path d="M4.96875 9.46924C5.22763 9.46924 5.4375 9.25937 5.4375 9.00049C5.4375 8.74161 5.22763 8.53174 4.96875 8.53174C4.70987 8.53174 4.5 8.74161 4.5 9.00049C4.5 9.25937 4.70987 9.46924 4.96875 9.46924Z" fill="#2196F3"/>
<path d="M4.96875 5.39014C5.22763 5.39014 5.4375 5.18027 5.4375 4.92139C5.4375 4.6625 5.22763 4.45264 4.96875 4.45264C4.70987 4.45264 4.5 4.6625 4.5 4.92139C4.5 5.18027 4.70987 5.39014 4.96875 5.39014Z" fill="#2196F3"/>
</g>
<defs>
<clipPath id="clip0_3908_93108">
<rect width="12" height="12" fill="white"/>
</clipPath>
</defs>
</svg>
