<svg width="64" height="64" viewBox="0 0 64 64" fill="none" xmlns="http://www.w3.org/2000/svg">
<g clip-path="url(#clip0_3919_89908)">
<path d="M35.2734 27.2061C34.7126 27.2061 34.2578 27.6609 34.2578 28.2217V28.2275C34.2578 28.7883 34.7126 29.2402 35.2734 29.2402C35.8343 29.2402 36.2891 28.7826 36.2891 28.2218C36.2891 27.661 35.8344 27.2061 35.2734 27.2061Z" fill="#2196F3"/>
<path d="M28.7207 27.2061C28.1599 27.2061 27.7051 27.6609 27.7051 28.2217V28.2275C27.7051 28.7883 28.1599 29.2402 28.7207 29.2402C29.2815 29.2402 29.7363 28.7826 29.7363 28.2218C29.7363 27.661 29.2815 27.2061 28.7207 27.2061Z" fill="#2196F3"/>
<path d="M35.2734 33.7441C34.7126 33.7441 34.2578 34.2018 34.2578 34.7626C34.2578 35.3234 34.7126 35.7782 35.2734 35.7782C35.8343 35.7782 36.2891 35.3234 36.2891 34.7626V34.7568C36.2891 34.1961 35.8344 33.7441 35.2734 33.7441Z" fill="#2196F3"/>
<path d="M28.7207 33.7441C28.1599 33.7441 27.7051 34.2018 27.7051 34.7626C27.7051 35.3234 28.1599 35.7782 28.7207 35.7782C29.2815 35.7782 29.7363 35.3234 29.7363 34.7626V34.7568C29.7363 34.1961 29.2815 33.7441 28.7207 33.7441Z" fill="#2196F3"/>
<path d="M56.9844 25.1019H52.8576C52.4647 23.7354 51.2026 22.7322 49.7095 22.7322C48.2149 22.7322 46.9516 23.7354 46.5585 25.1019H40.4524C40.1313 24.1376 39.3666 23.3743 38.4006 23.0542V20.8552C38.4006 19.7202 37.6597 18.7555 36.6357 18.4162V16.7963C36.6357 15.0801 35.2361 13.6839 33.5156 13.6839H33.0141V10.5331H40.7646C41.3255 10.5331 41.7803 10.0783 41.7803 9.51746C41.7803 8.95663 41.3255 8.50183 40.7646 8.50183H33.0141V7.57568C33.0141 7.01486 32.5593 6.56006 31.9985 6.56006C31.4376 6.56006 30.9829 7.01486 30.9829 7.57568V8.50183H23.2353C22.6744 8.50183 22.2196 8.95663 22.2196 9.51746C22.2196 10.0783 22.6744 10.5331 23.2353 10.5331H30.9829V13.6838H30.4813C28.7625 13.6838 27.3642 15.08 27.3642 16.7962V18.415C26.3387 18.7534 25.5965 19.719 25.5965 20.855V23.054C24.6305 23.3741 23.8658 24.1374 23.5446 25.1017H17.4387C17.0458 23.7352 15.7837 22.732 14.2904 22.732C12.7972 22.732 11.5351 23.7352 11.1423 25.1017H7.01562C6.4548 25.1017 6 25.5565 6 26.1173V36.8691C6 37.4299 6.4548 37.8847 7.01562 37.8847H11.1424C11.5353 39.2512 12.7974 40.2544 14.2905 40.2544C15.7838 40.2544 17.0459 39.2512 17.4388 37.8847H23.545C23.8663 38.8477 24.6308 39.6098 25.5965 39.9296V46.0167C24.227 46.4087 23.2214 47.6704 23.2214 49.1633C23.2214 50.6548 24.227 51.9154 25.5965 52.3072V56.4221C25.5965 56.9829 26.0513 57.4377 26.6121 57.4377H37.3849C37.9458 57.4377 38.4006 56.9829 38.4006 56.4221V52.308C39.7716 51.9172 40.7785 50.6559 40.7785 49.1633C40.7785 47.6694 39.7715 46.407 38.4006 46.0159V39.9296C39.3662 39.6099 40.1308 38.8477 40.452 37.8847H46.5584C46.9515 39.2512 48.2148 40.2544 49.7094 40.2544C51.2025 40.2544 52.4646 39.2512 52.8575 37.8847H56.9844C57.5452 37.8847 58 37.4299 58 36.8691V36.0447C58 35.4838 57.5452 35.029 56.9844 35.029C56.4888 35.029 56.0762 35.3839 55.9867 35.8534H52.9849V27.133H55.9867C56.0762 27.6025 56.4888 27.9573 56.9844 27.9573C57.5452 27.9573 58 27.5026 58 26.9417V26.1173C58 25.5566 57.5452 25.1019 56.9844 25.1019ZM40.6174 27.1332H46.431V35.8536H40.6174V27.1332ZM27.6277 22.8901V20.8552C27.6277 20.5634 27.8759 20.3168 28.1697 20.3168H35.8274C36.1212 20.3168 36.3693 20.5634 36.3693 20.8552V22.8901H27.6277ZM30.4814 15.715H33.5157C34.1161 15.715 34.6046 16.2001 34.6046 16.7962V18.2854H29.3955V16.7962C29.3954 16.2001 29.8826 15.715 30.4814 15.715ZM17.5661 27.1332H23.3798V35.8536H17.5661V27.1332ZM8.03125 27.1332H11.0151V35.8536H8.03125V27.1332ZM15.5349 36.9841C15.5349 37.6675 14.9767 38.2234 14.2905 38.2234C13.6045 38.2234 13.0463 37.6674 13.0463 36.9841V26.0026C13.0463 25.3193 13.6045 24.7634 14.2905 24.7634C14.9767 24.7634 15.5349 25.3194 15.5349 26.0026V36.9841ZM36.3693 40.0938V45.89H27.6277V40.0938H36.3693ZM27.6277 55.4066V52.434H36.3693V55.4066H27.6277ZM37.5031 50.4028H26.4969C25.8109 50.4028 25.2527 49.8468 25.2527 49.1635C25.2527 48.4786 25.8109 47.9214 26.4969 47.9214H37.503C38.189 47.9214 38.7472 48.4786 38.7472 49.1635C38.7473 49.8468 38.189 50.4028 37.5031 50.4028ZM37.3849 38.0625H26.6121C25.9498 38.0625 25.411 37.5272 25.411 36.8693V26.1175C25.411 25.458 25.9499 24.9213 26.6121 24.9213H37.3849C38.0472 24.9213 38.586 25.458 38.586 26.1175V36.8693C38.5861 37.5273 38.0472 38.0625 37.3849 38.0625ZM50.9537 36.9841C50.9537 37.6675 50.3955 38.2234 49.7095 38.2234C49.0218 38.2234 48.4623 37.6674 48.4623 36.9841V26.0026C48.4623 25.3193 49.0218 24.7634 49.7095 24.7634C50.3955 24.7634 50.9537 25.3194 50.9537 26.0026V36.9841Z" fill="#2196F3"/>
<path d="M56.9844 30.4736C56.4235 30.4736 55.9688 30.9299 55.9688 31.4908C55.9688 32.0517 56.4235 32.5064 56.9844 32.5064C57.5452 32.5064 58 32.0516 58 31.4908V31.4879C58 30.927 57.5452 30.4736 56.9844 30.4736Z" fill="#2196F3"/>
</g>
<defs>
<clipPath id="clip0_3919_89908">
<rect width="52" height="52" fill="white" transform="translate(6 6)"/>
</clipPath>
</defs>
</svg>
