<svg width="68" height="68" viewBox="0 0 68 68" fill="none" xmlns="http://www.w3.org/2000/svg">
<g clip-path="url(#clip0_3919_89915)">
<path d="M57.9688 31.3834V17.4654L45.8355 13.053V31.3834H44.1021V10.5834H23.3021V31.3834H21.5688V20.038H19.8355V13.4198H16.3688V7.74707H14.6355V13.4198H11.1688V20.038H9.43548V31.3834H7.70215V57.8562H23.3021V59.7471H44.1021V57.8562H59.7021V31.3834H57.9688ZM12.9021 15.3107H18.1021V20.038H12.9021V15.3107ZM11.1688 21.9289H19.8355V31.3834H11.1688V21.9289ZM23.3021 55.9653H9.43548V33.2743H23.3021V55.9653ZM35.4355 57.8562H31.9688V48.4016H35.4355V57.8562ZM42.3688 57.8562H37.1688V46.5107H30.2355V57.8562H25.0355V12.4743H42.3688V57.8562ZM47.5688 15.6775L56.2355 18.8287V31.3834H54.5021V20.038H52.7688V31.3834H51.0355V20.038H49.3021V31.3834H47.5688V15.6775ZM52.7688 55.9653H49.3021V52.1834H52.7688V55.9653ZM57.9688 55.9653H54.5021V50.2925H47.5688V55.9653H44.1021V33.2743H57.9688V55.9653Z" fill="#2196F3"/>
<path d="M21.5689 35.1621H11.1689V37.053H21.5689V35.1621Z" fill="#2196F3"/>
<path d="M21.5689 38.9448H11.1689V40.8357H21.5689V38.9448Z" fill="#2196F3"/>
<path d="M21.5689 42.7275H11.1689V44.6184H21.5689V42.7275Z" fill="#2196F3"/>
<path d="M21.5689 46.5078H11.1689V48.3987H21.5689V46.5078Z" fill="#2196F3"/>
<path d="M27.6357 16.2559V21.9286H32.8357V16.2559H27.6357ZM31.1024 20.0377H29.3691V18.1468H31.1024V20.0377Z" fill="#2196F3"/>
<path d="M34.5684 16.2559V21.9286H39.7684V16.2559H34.5684ZM38.035 20.0377H36.3017V18.1468H38.035V20.0377Z" fill="#2196F3"/>
<path d="M27.6357 23.8188V29.4916H32.8357V23.8188H27.6357ZM31.1024 27.6007H29.3691V25.7098H31.1024V27.6007Z" fill="#2196F3"/>
<path d="M34.5684 23.8188V29.4916H39.7684V23.8188H34.5684ZM38.035 27.6007H36.3017V25.7098H38.035V27.6007Z" fill="#2196F3"/>
<path d="M27.6357 31.3818V37.0546H32.8357V31.3818H27.6357ZM31.1024 35.1637H29.3691V33.2727H31.1024V35.1637Z" fill="#2196F3"/>
<path d="M34.5684 31.3818V37.0546H39.7684V31.3818H34.5684ZM38.035 35.1637H36.3017V33.2727H38.035V35.1637Z" fill="#2196F3"/>
<path d="M27.6357 38.9448V44.6175H32.8357V38.9448H27.6357ZM31.1024 42.7266H29.3691V40.8357H31.1024V42.7266Z" fill="#2196F3"/>
<path d="M34.5684 38.9448V44.6175H39.7684V38.9448H34.5684ZM38.035 42.7266H36.3017V40.8357H38.035V42.7266Z" fill="#2196F3"/>
<path d="M47.5693 35.1621H45.8359V37.053H47.5693V35.1621Z" fill="#2196F3"/>
<path d="M52.7684 35.1621H49.3018V37.053H52.7684V35.1621Z" fill="#2196F3"/>
<path d="M56.2353 35.1621H54.502V37.053H56.2353V35.1621Z" fill="#2196F3"/>
<path d="M47.5693 38.9448H45.8359V40.8357H47.5693V38.9448Z" fill="#2196F3"/>
<path d="M52.7684 38.9448H49.3018V40.8357H52.7684V38.9448Z" fill="#2196F3"/>
<path d="M56.2353 38.9448H54.502V40.8357H56.2353V38.9448Z" fill="#2196F3"/>
<path d="M47.5693 42.7275H45.8359V44.6184H47.5693V42.7275Z" fill="#2196F3"/>
<path d="M52.7684 42.7275H49.3018V44.6184H52.7684V42.7275Z" fill="#2196F3"/>
<path d="M56.2353 42.7275H54.502V44.6184H56.2353V42.7275Z" fill="#2196F3"/>
<path d="M47.5693 46.5078H45.8359V48.3987H47.5693V46.5078Z" fill="#2196F3"/>
<path d="M52.7684 46.5078H49.3018V48.3987H52.7684V46.5078Z" fill="#2196F3"/>
<path d="M56.2353 46.5078H54.502V48.3987H56.2353V46.5078Z" fill="#2196F3"/>
</g>
<defs>
<clipPath id="clip0_3919_89915">
<rect width="52" height="52" fill="white" transform="translate(8 8)"/>
</clipPath>
</defs>
</svg>
