<svg width="68" height="68" viewBox="0 0 68 68" fill="none" xmlns="http://www.w3.org/2000/svg">
<path d="M49.6001 36.6C49.6001 35.1267 48.0401 34 46.1334 34C44.2267 34 42.6667 35.1267 42.6667 36.6V39.2L38.4201 37.38C39.4601 36.4267 40.1534 35.2133 40.5867 33.9133L42.9267 32.7C43.7934 32.2667 44.4001 31.4 44.4001 30.36V28.8C44.4001 27.3267 43.2734 26.2 41.8001 26.2H41.4534L40.9334 26.72V24.4667H42.6667V21.8667C42.6667 16.4933 39.1134 11.7267 34.0001 10.2533C33.8267 8.95333 32.7001 8 31.4001 8H29.6667C28.3667 8 27.2401 8.95333 27.0667 10.2533C21.9534 11.7267 18.4001 16.4933 18.4001 21.8667V24.4667H20.1334V26.72L19.6134 26.2H19.2667C17.7934 26.2 16.6667 27.3267 16.6667 28.8V30.36C16.6667 31.3133 17.1867 32.2667 18.1401 32.7L20.4801 33.9133C20.9134 35.2133 21.6067 36.4267 22.6467 37.38L15.4534 40.5C11.9867 42.06 9.7334 45.44 9.7334 49.2533V60H53.0667V34.78L49.6001 39.6333V36.6ZM44.4001 46.8267V38.8533C45.5267 39.2867 46.7401 39.2867 47.8667 38.8533V41.9733L44.4001 46.8267ZM46.1334 35.7333C47.1734 35.7333 47.8667 36.2533 47.8667 36.6C47.8667 36.9467 47.1734 37.4667 46.1334 37.4667C45.0934 37.4667 44.4001 36.9467 44.4001 36.6C44.4001 36.2533 45.0934 35.7333 46.1334 35.7333ZM42.6667 43.2733L37.0334 47.4333C36.6001 47.6933 35.9934 47.8667 35.4734 47.8667H32.5267L32.7867 46.8267C32.8734 46.48 33.2201 46.1333 33.6534 46.1333H34.8667C36.2534 46.1333 37.5534 45.44 38.4201 44.3133L41.1934 40.4133L42.7534 41.1067V43.2733H42.6667ZM31.1401 46.3933L30.5334 48.6467L29.9267 46.3933C29.6667 45.18 28.6267 44.4 27.4134 44.4H26.2001C25.3334 44.4 24.5534 43.9667 24.1201 43.2733L21.5201 39.6333L24.2067 38.42L26.7201 39.8067C29.0601 41.1067 31.8334 41.1067 34.1734 39.8067L36.6867 38.42L39.3734 39.6333L36.7734 43.2733C36.2534 43.9667 35.4734 44.4 34.6934 44.4H33.4801C32.4401 44.4 31.4001 45.18 31.1401 46.3933ZM28.5401 47.8667H25.5934C25.0734 47.8667 24.4667 47.6933 24.0334 47.3467L16.4934 41.8867L19.8734 40.4133L22.6467 44.3133C23.4267 45.44 24.8134 46.1333 26.2001 46.1333H27.4134C27.8467 46.1333 28.1934 46.3933 28.2801 46.8267L28.5401 47.8667ZM42.1467 28.02C42.4934 28.1067 42.6667 28.4533 42.6667 28.8V30.36C42.6667 30.7067 42.4934 30.9667 42.1467 31.14L40.9334 31.7467V31.66V29.2333L42.1467 28.02ZM20.3067 22.7333C20.6534 21.6933 21.6067 21 22.7334 21H38.3334C39.4601 21 40.4134 21.6933 40.7601 22.7333H20.3067ZM27.0667 12.0733V17.5333H28.8001V10.6C28.8001 10.08 29.1467 9.73333 29.6667 9.73333H31.4001C31.9201 9.73333 32.2667 10.08 32.2667 10.6V17.5333H34.0001V12.0733C37.5534 13.2867 40.1534 16.32 40.7601 20.0467C40.0667 19.5267 39.2001 19.2667 38.3334 19.2667H22.7334C21.8667 19.2667 21.0001 19.5267 20.3067 20.0467C20.9134 16.32 23.5134 13.2867 27.0667 12.0733ZM18.9201 31.14C18.6601 30.9667 18.4001 30.7067 18.4001 30.36V28.8C18.4001 28.4533 18.6601 28.1067 18.9201 28.02L20.1334 29.2333V31.66V31.7467L18.9201 31.14ZM21.8667 31.66V24.4667H39.2001V31.66C39.2001 33.9133 37.9867 35.9067 36.0801 36.9467L33.4801 38.3333C31.6601 39.2867 29.4934 39.2867 27.6734 38.3333L25.0734 36.9467C23.0801 35.9067 21.8667 33.8267 21.8667 31.66ZM11.4667 49.1667C11.4667 46.5667 12.7667 44.2267 14.8467 42.7533L23.0801 48.7333C23.8601 49.2533 24.7267 49.6 25.5934 49.6H29.6667V58.2667H27.0667V51.3333H20.8267L20.1334 48.56L18.4001 48.9067L19.0067 51.3333H17.5334V58.2667H11.4667V49.1667ZM25.3334 53.0667V54.8H19.2667V53.0667H25.3334ZM19.2667 56.5333H25.3334V58.2667H19.2667V56.5333ZM31.4001 58.2667V49.6H35.4734C36.4267 49.6 37.2934 49.34 37.9867 48.7333L42.6667 45.3533V49.1667L36.1667 58.2667H31.4001ZM51.3334 40.1533V58.2667H38.3334L49.6001 42.6667V42.58L51.3334 40.1533Z" fill="#2196F3"/>
<path d="M49.601 52.4875V41.9214L41.8877 52.4875H49.601ZM47.8677 50.8986H45.181L47.8677 47.1647V50.8986Z" fill="#2196F3"/>
</svg>
