<svg width="16" height="16" viewBox="0 0 16 16" fill="none" xmlns="http://www.w3.org/2000/svg">
<g clip-path="url(#clip0_3908_92613)">
<path d="M16 8C16 9.5791 15.5312 11.1147 14.6445 12.441C14.524 12.6213 14.326 12.7188 14.1244 12.7188C14.005 12.7188 13.8843 12.6847 13.7776 12.6133C13.4906 12.4215 13.4136 12.0333 13.6053 11.7463C14.3542 10.6263 14.75 9.33093 14.75 8C14.75 7.4281 14.6785 6.86011 14.5373 6.31201C14.4513 5.97778 14.6526 5.63696 14.9868 5.5509C15.3213 5.46497 15.6618 5.66614 15.7479 6.00037C15.9151 6.65027 16 7.323 16 8ZM11.4917 13.778C10.4419 14.4138 9.23449 14.75 7.99999 14.75C4.27807 14.75 1.25 11.7219 1.25 8C1.25 4.27808 4.27807 1.25 7.99999 1.25C9.37804 1.25 10.7031 1.66235 11.8321 2.4425C12.1161 2.63867 12.5054 2.5675 12.7016 2.28357C12.8978 1.99963 12.8268 1.61035 12.5427 1.41406C11.2038 0.489014 9.63305 0 7.99999 0C5.86315 0 3.85412 0.832153 2.34314 2.34314C0.832153 3.85413 0 5.86316 0 8C0 10.1368 0.832153 12.1459 2.34314 13.6569C3.85412 15.1678 5.86315 16 7.99999 16C9.46288 16 10.8943 15.6013 12.1394 14.847C12.4347 14.6682 12.529 14.2839 12.3502 13.9886C12.1713 13.6934 11.787 13.5991 11.4917 13.778ZM8.0603 9.81226C7.9613 9.81616 7.86889 9.78101 7.79711 9.71265L4.5238 6.60901C4.27331 6.37146 3.87768 6.38196 3.64026 6.63245C3.40271 6.88293 3.4132 7.27856 3.66369 7.51599L6.93639 10.6191C7.23864 10.9065 7.62963 11.0625 8.04394 11.0625C8.06615 11.0625 8.08837 11.062 8.11059 11.0612C8.54943 11.0435 8.95251 10.8535 9.24547 10.5262C9.25292 10.5181 9.26 10.5096 9.26696 10.501L15.862 2.29785C16.0784 2.02881 16.0356 1.63538 15.7666 1.41919C15.4977 1.20288 15.1041 1.24561 14.8878 1.51465L8.30566 9.70178C8.24096 9.76929 8.15429 9.80847 8.0603 9.81226Z" fill="#2196F3"/>
</g>
<defs>
<clipPath id="clip0_3908_92613">
<rect width="16" height="16" fill="white"/>
</clipPath>
</defs>
</svg>
