<svg width="17" height="12" viewBox="0 0 17 12" fill="none" xmlns="http://www.w3.org/2000/svg">
<g clip-path="url(#clip0_1_1839)">
<path d="M14.0609 11.2907H2.48894C1.96202 11.289 1.45724 11.0946 1.08465 10.75C0.712066 10.4054 0.501906 9.9386 0.5 9.45128V2.76232C0.501906 2.275 0.712066 1.80815 1.08465 1.46357C1.45724 1.11898 1.96202 0.924614 2.48894 0.922852H14.0609C14.5878 0.924614 15.0926 1.11898 15.4652 1.46357C15.8378 1.80815 16.048 2.275 16.0499 2.76232V9.45128C16.048 9.9386 15.8378 10.4054 15.4652 10.75C15.0926 11.0946 14.5878 11.289 14.0609 11.2907V11.2907ZM2.48894 1.9262C2.24917 1.9262 2.01921 2.01429 1.84967 2.17109C1.68012 2.32789 1.58487 2.54056 1.58487 2.76232V9.45128C1.58487 9.67303 1.68012 9.88571 1.84967 10.0425C2.01921 10.1993 2.24917 10.2874 2.48894 10.2874H14.0609C14.3007 10.2874 14.5307 10.1993 14.7002 10.0425C14.8698 9.88571 14.965 9.67303 14.965 9.45128V2.76232C14.965 2.54056 14.8698 2.32789 14.7002 2.17109C14.5307 2.01429 14.3007 1.9262 14.0609 1.9262H2.48894Z" fill="white"/>
<path d="M8.27577 7.00953C7.85606 7.00953 7.44401 6.90559 7.08241 6.70852L0.768455 3.23695C0.650489 3.16896 0.564758 3.06215 0.528525 2.93804C0.492292 2.81392 0.508247 2.68173 0.573178 2.56806C0.645391 2.45755 0.761432 2.37752 0.896549 2.34503C1.03167 2.31254 1.17516 2.33016 1.29643 2.39414L7.61762 5.85903C7.80932 5.96716 8.02953 6.02437 8.25408 6.02437C8.47862 6.02437 8.69883 5.96716 8.89053 5.85903L15.2117 2.39414C15.333 2.33016 15.4765 2.31254 15.6116 2.34503C15.7467 2.37752 15.8628 2.45755 15.935 2.56806C15.9999 2.68173 16.0159 2.81392 15.9796 2.93804C15.9434 3.06215 15.8577 3.16896 15.7397 3.23695L9.46913 6.70852C9.10754 6.90559 8.69548 7.00953 8.27577 7.00953V7.00953Z" fill="white"/>
</g>
<defs>
<clipPath id="clip0_1_1839">
<rect width="16" height="12" fill="white" transform="translate(0.5)"/>
</clipPath>
</defs>
</svg>
