<svg width="16" height="16" viewBox="0 0 16 16" fill="none" xmlns="http://www.w3.org/2000/svg">
<path d="M13.9879 10.813C13.9653 10.7943 11.41 8.96558 10.7166 9.08547C10.3834 9.14435 10.1927 9.37134 9.81081 9.82659C9.74937 9.89998 9.60131 10.0753 9.48697 10.2004C9.24561 10.1217 9.0102 10.0259 8.78254 9.91363C7.6073 9.34148 6.65774 8.39192 6.08558 7.21667C5.97331 6.98901 5.87749 6.7536 5.79886 6.51225C5.9243 6.39747 6.10009 6.24942 6.17518 6.18627C6.62787 5.80654 6.85486 5.61582 6.91374 5.28217C7.03449 4.59139 5.20494 2.03396 5.18617 2.01092C5.10285 1.89275 4.99434 1.79456 4.86846 1.72344C4.74258 1.65231 4.60248 1.61001 4.45828 1.59961C3.71673 1.59961 1.59961 4.34563 1.59961 4.80857C1.59961 4.83545 1.63844 7.56782 5.00782 10.9952C8.43139 14.3608 11.1638 14.3996 11.1906 14.3996C11.6536 14.3996 14.3996 12.2825 14.3996 11.5409C14.3892 11.3967 14.3469 11.2565 14.2757 11.1306C14.2045 11.0048 14.1062 10.8963 13.9879 10.813ZM11.1437 13.5437C10.7708 13.513 8.4779 13.2105 5.61113 10.3941C2.7802 7.51193 2.48537 5.21262 2.45593 4.85636C3.01519 3.97855 3.69061 3.18042 4.46382 2.48366C4.48089 2.50073 4.5035 2.52633 4.53252 2.55961C5.12551 3.36909 5.63633 4.23567 6.05742 5.14649C5.92049 5.28425 5.77575 5.41403 5.62393 5.53518C5.38849 5.71457 5.17229 5.9179 4.97881 6.1419L4.87513 6.28697L4.90585 6.46233C4.99614 6.85347 5.13444 7.23194 5.31758 7.58915C5.97375 8.93658 7.06255 10.0252 8.41006 10.6812C8.7672 10.8646 9.14569 11.0031 9.53689 11.0934L9.71225 11.1241L9.85731 11.0204C10.0822 10.8261 10.2863 10.609 10.4666 10.3727C10.6001 10.2132 10.7789 10.0002 10.8463 9.94009C11.7597 10.3608 12.6285 10.8722 13.4396 11.4667C13.475 11.4966 13.4998 11.5196 13.5164 11.5345C12.8198 12.308 12.0216 12.9836 11.1437 13.5429V13.5437Z" fill="white"/>
</svg>
