<svg width="128" height="36" viewBox="0 0 128 36" fill="none" xmlns="http://www.w3.org/2000/svg">
<g clip-path="url(#clip0_3908_92948)">
<path d="M17.9472 32.4229C16.045 32.7474 14.1095 32.8446 12.1072 33.1037L6.00004 15.7287V33.8495C4.09793 34.0439 2.36264 34.3032 0.560547 34.5625V1.36816H5.63318L12.5743 20.2023V1.36816H17.9472V32.4229ZM28.4593 13.5243C30.5284 13.5243 33.6987 13.427 35.6009 13.427V18.6136C33.2313 18.6136 30.4616 18.6136 28.4593 18.7108V26.4261C31.5963 26.2317 34.7332 25.9721 37.9034 25.8748V30.8666L23.1196 32.0014V1.36816H37.9034V6.5548H28.4593V13.5243ZM57.7595 6.55491H52.2199V30.4134C50.4177 30.4134 48.6157 30.4134 46.8806 30.478V6.55491H41.341V1.36816H57.7597L57.7595 6.55491ZM66.4361 13.1678H73.7446V18.3543H66.4361V30.1216H61.1964V1.36816H76.114V6.5548H66.4361V13.1678ZM84.7908 25.5832C87.8275 25.6478 90.8975 25.8752 93.8675 26.0369V31.1588C89.096 30.8668 84.3237 30.5755 79.4514 30.478V1.36816H84.7908V25.5832ZM98.3729 31.5154C100.075 31.6128 101.877 31.7101 103.612 31.9043V1.36816H98.3729V31.5154ZM127.006 1.36816L120.231 17.155L127.006 34.5625C125.003 34.3032 123.001 33.9466 120.998 33.6224L117.161 24.0274L113.257 32.8446C111.321 32.5202 109.452 32.4229 107.517 32.1636L114.392 16.9603L108.184 1.36816H113.924L117.428 10.0882L121.166 1.36816H127.006Z" fill="#00296C"/>
</g>
<defs>
<clipPath id="clip0_3908_92948">
<rect width="127.24" height="34.1376" fill="white" transform="translate(0.379883 0.931152)"/>
</clipPath>
</defs>
</svg>
