<svg width="122" height="38" viewBox="0 0 122 38" fill="none" xmlns="http://www.w3.org/2000/svg">
<g clip-path="url(#clip0_3908_92985)">
<path fill-rule="evenodd" clip-rule="evenodd" d="M75.539 28.7668C68.6061 34.043 58.5218 36.8541 49.8241 36.8541C37.6389 36.8541 26.7142 32.2266 18.3947 24.5286C17.7645 23.9231 18.3107 23.1014 19.109 23.5771C28.0588 28.9398 39.1095 32.1401 50.5384 32.1401C58.2276 32.1401 66.7152 30.4967 74.5306 27.0802C75.7071 26.6044 76.6735 27.9019 75.539 28.7668Z" fill="#00296C"/>
<path fill-rule="evenodd" clip-rule="evenodd" d="M77.9321 25.2084C77.0948 24.0446 72.3499 24.6481 70.2367 24.9498C69.5987 25.036 69.479 24.4325 70.0772 24.0015C73.8651 21.1135 80.0457 21.9756 80.7634 22.9239C81.481 23.8722 80.564 30.5964 77.0151 33.7861C76.4568 34.2602 75.9385 34.0016 76.1778 33.355C76.9752 31.1998 78.7694 26.4153 77.9321 25.2084Z" fill="#00296C"/>
<path fill-rule="evenodd" clip-rule="evenodd" d="M70.1559 4.76329V2.04689C70.1559 1.62898 70.4491 1.37823 70.8261 1.37823H82.9733C83.3504 1.37823 83.6855 1.67077 83.6855 2.04689V4.34538C83.6855 4.7215 83.3504 5.22298 82.7638 6.0588L76.481 15.002C78.8264 14.9602 81.2982 15.2945 83.3923 16.4647C83.8531 16.7154 83.9788 17.1333 84.0207 17.5094V20.393C84.0207 20.8109 83.6017 21.2706 83.1409 21.0199C79.4129 19.0557 74.4284 18.8468 70.3234 21.0617C69.9045 21.2706 69.4437 20.8528 69.4437 20.4348V17.6766C69.4437 17.2587 69.4437 16.5065 69.9045 15.8379L77.1931 5.43195H70.868C70.491 5.43195 70.1559 5.1394 70.1559 4.76329ZM25.8801 21.6049H22.1938C21.8588 21.5631 21.5656 21.3124 21.5237 20.9781V2.08868C21.5237 1.71256 21.8588 1.42003 22.2357 1.42003H25.6706C26.0476 1.42003 26.299 1.71256 26.3408 2.04689V4.51254H26.4246C27.3042 2.13047 29.0217 1.00212 31.2836 1.00212C33.5875 1.00212 35.0535 2.13047 36.0589 4.51254C36.9386 2.13047 38.9911 1.00212 41.1692 1.00212C42.7191 1.00212 44.3947 1.62898 45.4418 3.09166C46.6147 4.67971 46.3634 6.9782 46.3634 9.02595V20.9781C46.3634 21.3542 46.0282 21.6468 45.6512 21.6468H42.007C41.63 21.6049 41.3368 21.3124 41.3368 20.9781V10.9483C41.3368 10.1543 41.4206 8.1483 41.253 7.3961C40.9598 6.14238 40.1639 5.76626 39.0748 5.76626C38.1952 5.76626 37.2318 6.35134 36.8548 7.31252C36.4778 8.27368 36.5197 9.86178 36.5197 10.9483V20.9781C36.5197 21.3542 36.1845 21.6468 35.8075 21.6468H32.1214C31.7444 21.6049 31.4512 21.3124 31.4512 20.9781V10.9483C31.4512 8.85875 31.7863 5.72447 29.1892 5.72447C26.5503 5.72447 26.6341 8.73337 26.6341 10.9483V20.9781C26.5922 21.3124 26.299 21.6049 25.8801 21.6049ZM94.158 1.00212C99.6448 1.00212 102.619 5.68269 102.619 11.6587C102.619 17.4259 99.3516 22.0228 94.158 22.0228C88.7961 22.0228 85.8641 17.3423 85.8641 11.4916C85.8222 5.5991 88.7961 1.00212 94.158 1.00212ZM94.158 4.88865C91.4348 4.88865 91.2672 8.60807 91.2672 10.9065C91.2672 13.205 91.2253 18.1363 94.1161 18.1363C96.9643 18.1363 97.1319 14.1662 97.1319 11.7424C97.1319 10.1543 97.0481 8.23194 96.5872 6.72746C96.1682 5.39015 95.3303 4.88865 94.158 4.88865ZM109.698 21.6049H106.012C105.635 21.5631 105.342 21.2706 105.342 20.9363V2.00509C105.384 1.67077 105.677 1.37823 106.054 1.37823H109.489C109.824 1.37823 110.075 1.62899 110.159 1.92153V4.80508H110.243C111.29 2.21405 112.714 1.00212 115.27 1.00212C116.903 1.00212 118.537 1.58719 119.584 3.21702C120.547 4.72149 120.547 7.27073 120.547 9.10951V21.0199C120.505 21.3542 120.212 21.6049 119.835 21.6049H116.149C115.814 21.5631 115.521 21.3124 115.479 21.0199V10.7393C115.479 8.64981 115.73 5.6409 113.175 5.6409C112.295 5.6409 111.458 6.22597 111.039 7.14536C110.536 8.3155 110.452 9.44382 110.452 10.7393V20.9363C110.411 21.3124 110.075 21.6049 109.698 21.6049ZM60.4797 12.5782C60.4797 13.999 60.5216 15.211 59.8095 16.5065C59.223 17.5513 58.3015 18.1782 57.2543 18.1782C55.8301 18.1782 54.9924 17.0916 54.9924 15.5035C54.9924 12.3692 57.7989 11.7841 60.4797 11.7841V12.5782ZM64.2077 21.5632C63.9564 21.7721 63.6213 21.8139 63.3281 21.6468C62.1133 20.6437 61.862 20.1423 61.1917 19.1811C59.1811 21.2288 57.7151 21.8557 55.118 21.8557C52.0183 21.8557 49.5888 19.9334 49.5888 16.1304C49.5888 13.1214 51.2224 11.1155 53.5262 10.1125C55.5369 9.23489 58.3434 9.06777 60.4797 8.81701V8.35732C60.4797 7.47969 60.5635 6.43492 60.0189 5.68269C59.5582 5.01404 58.7204 4.7215 57.9664 4.7215C56.5422 4.7215 55.2856 5.43195 54.9924 6.93641C54.9086 7.27073 54.6991 7.60505 54.364 7.60505L50.8035 7.22894C50.5103 7.14536 50.1752 6.93641 50.259 6.47671C51.0967 2.13047 54.9924 0.834961 58.5109 0.834961C60.3122 0.834961 62.6579 1.29466 64.0821 2.67375C65.8833 4.34538 65.7158 6.60209 65.7158 9.02595V14.7513C65.7158 16.4647 66.4278 17.2169 67.098 18.1782C67.3493 18.5125 67.3912 18.9303 67.098 19.1393C66.3021 19.7662 64.9617 20.9363 64.2077 21.5632ZM12.0988 12.5782C12.0988 13.999 12.1407 15.211 11.4286 16.5065C10.8422 17.5513 9.92062 18.1782 8.87345 18.1782C7.44924 18.1782 6.61148 17.0916 6.61148 15.5035C6.61148 12.3692 9.41802 11.7841 12.0988 11.7841V12.5782ZM15.785 21.5632C15.5337 21.7721 15.1986 21.8139 14.9053 21.6468C13.6906 20.6437 13.4393 20.1423 12.769 19.1811C10.7584 21.2288 9.29233 21.8557 6.69525 21.8557C3.59553 21.8557 1.16602 19.9334 1.16602 16.1304C1.16602 13.1214 2.79965 11.1155 5.1035 10.1125C7.11414 9.23489 9.92062 9.06777 12.0569 8.81701V8.35732C12.0569 7.47969 12.1407 6.43492 11.5962 5.68269C11.1354 5.01404 10.2976 4.7215 9.54363 4.7215C8.11946 4.7215 6.86281 5.43195 6.56959 6.93641C6.48581 7.27073 6.27637 7.60505 5.94126 7.60505L2.38077 7.22894C2.08755 7.14536 1.75245 6.93641 1.83623 6.47671C2.674 2.13047 6.5696 0.834961 10.0882 0.834961C11.8894 0.834961 14.2351 1.29466 15.6593 2.67375C17.4605 4.34538 17.2929 6.60209 17.2929 9.02595V14.7513C17.2929 16.4647 18.0051 17.2169 18.6753 18.1782C18.9266 18.5125 18.9685 18.9303 18.6753 19.1393C17.8794 19.7662 16.539 20.9363 15.785 21.5632Z" fill="#00296C"/>
</g>
<defs>
<clipPath id="clip0_3908_92985">
<rect width="120.257" height="37.241" fill="white" transform="translate(0.871094 0.379395)"/>
</clipPath>
</defs>
</svg>
